<svg version="1.1" viewBox="0.0 0.0 960.0 540.0" fill="none" stroke="none" stroke-linecap="square" stroke-miterlimit="10" xmlns:xlink="http://www.w3.org/1999/xlink" xmlns="http://www.w3.org/2000/svg"><clipPath id="g33e6514bd96_0_423.0"><path d="m0 0l960.0 0l0 540.0l-960.0 0l0 -540.0z" clip-rule="nonzero"/></clipPath><g clip-path="url(#g33e6514bd96_0_423.0)"><path fill="#ffffff" d="m0 0l960.0 0l0 540.0l-960.0 0z" fill-rule="evenodd"/><path fill="#000000" fill-opacity="0.0" d="m154.18898 168.47244l651.6221 0l0 142.14172l-651.6221 0z" fill-rule="evenodd"/><path fill="#000000" d="m251.12782 227.39244l0 -5.203125l5.8749847 0l0 -26.0l-5.8749847 0l0 -5.203125l17.35936 0l0 5.203125l-5.875 0l0 26.0l5.875 0l0 5.203125l-17.35936 0zm24.746628 0l0 -27.296875l5.40625 0l0 5.828125l-0.984375 0.609375q0.40625 -1.34375 1.3125 -2.59375q0.921875 -1.25 2.25 -2.203125q1.328125 -0.96875 2.859375 -1.53125q1.53125 -0.578125 3.140625 -0.578125q2.34375 0 4.109375 0.78125q1.765625 0.78125 2.90625 2.34375q1.15625 1.546875 1.671875 3.890625l-0.828125 -0.203125l0.359375 -0.890625q0.578125 -1.1875 1.578125 -2.25q1.015625 -1.078125 2.3125 -1.90625q1.3125 -0.828125 2.765625 -1.296875q1.453125 -0.46875 2.859375 -0.46875q3.0625 0 5.0625 1.25q2.015625 1.25 3.015625 3.796875q1.015625 2.546875 1.015625 6.34375l0 16.375l-5.40625 0l0 -16.0625q0 -2.34375 -0.59375 -3.828125q-0.59375 -1.484375 -1.796875 -2.203125q-1.1875 -0.734375 -3.0625 -0.734375q-1.453125 0 -2.734375 0.5q-1.265625 0.484375 -2.203125 1.375q-0.9375 0.875 -1.46875 2.046875q-0.515625 1.171875 -0.515625 2.578125l0 16.328125l-5.40625 0l0 -16.171875q0 -2.125 -0.625 -3.609375q-0.625 -1.484375 -1.828125 -2.265625q-1.1875 -0.78125 -2.90625 -0.78125q-1.453125 0 -2.703125 0.5q-1.25 0.484375 -2.1875 1.34375q-0.921875 0.859375 -1.453125 2.03125q-0.515625 1.171875 -0.515625 2.515625l0 16.4375l-5.40625 0zm58.501434 0.515625q-3.375 0 -6.171875 -1.859375q-2.78125 -1.875 -4.453125 -5.09375q-1.65625 -3.234375 -1.65625 -7.296875q0 -4.109375 1.6875 -7.296875q1.703125 -3.203125 4.578125 -5.015625q2.890625 -1.828125 6.484375 -1.828125q2.125 0 3.890625 0.625q1.78125 0.625 3.09375 1.75q1.328125 1.109375 2.1875 2.578125q0.859375 1.453125 1.0625 3.109375l-1.1875 -0.421875l0 -7.0625l5.40625 0l0 27.296875l-5.40625 0l0 -6.5l1.25 -0.359375q-0.3125 1.40625 -1.28125 2.734375q-0.953125 1.3125 -2.4375 2.359375q-1.484375 1.03125 -3.28125 1.65625q-1.796875 0.625 -3.765625 0.625zm1.40625 -4.9375q2.4375 0 4.3125 -1.1875q1.875 -1.203125 2.9375 -3.3125q1.0625 -2.109375 1.0625 -4.8125q0 -2.640625 -1.0625 -4.71875q-1.0625 -2.09375 -2.9375 -3.28125q-1.875 -1.203125 -4.3125 -1.203125q-2.390625 0 -4.25 1.203125q-1.84375 1.1875 -2.90625 3.28125q-1.0625 2.078125 -1.0625 4.71875q0 2.703125 1.0625 4.8125q1.0625 2.109375 2.90625 3.3125q1.859375 1.1875 4.25 1.1875zm33.228516 16.375q-2.921875 0 -5.8125 -0.90625q-2.875 -0.90625 -4.640625 -2.359375l1.96875 -4.15625q1.046875 0.765625 2.453125 1.359375q1.40625 0.609375 2.953125 0.9375q1.5625 0.34375 3.078125 0.34375q2.859375 0 4.78125 -0.9375q1.921875 -0.9375 2.90625 -2.765625q0.984375 -1.8125 0.984375 -4.515625l0 -5.25l0.578125 0.375q-0.265625 1.609375 -1.703125 3.09375q-1.421875 1.46875 -3.546875 2.40625q-2.125 0.9375 -4.375 0.9375q-3.890625 0 -6.9375 -1.84375q-3.046875 -1.84375 -4.8125 -5.03125q-1.765625 -3.203125 -1.765625 -7.3125q0 -4.109375 1.734375 -7.3125q1.75 -3.203125 4.78125 -5.046875q3.046875 -1.84375 6.84375 -1.84375q1.5625 0 3.015625 0.390625q1.46875 0.390625 2.703125 1.09375q1.25 0.703125 2.234375 1.53125q1.0 0.828125 1.625 1.765625q0.625 0.9375 0.78125 1.78125l-1.15625 0.40625l0 -6.390625l5.359375 0l0 25.640625q0 3.265625 -0.96875 5.78125q-0.953125 2.53125 -2.78125 4.265625q-1.8125 1.75 -4.421875 2.65625q-2.59375 0.90625 -5.859375 0.90625zm0.203125 -16.375q2.546875 0 4.515625 -1.1875q1.984375 -1.203125 3.078125 -3.28125q1.09375 -2.078125 1.09375 -4.78125q0 -2.703125 -1.125 -4.8125q-1.109375 -2.109375 -3.0625 -3.296875q-1.953125 -1.203125 -4.5 -1.203125q-2.5 0 -4.453125 1.21875q-1.9375 1.21875 -3.0625 3.328125q-1.109375 2.109375 -1.109375 4.765625q0 2.640625 1.109375 4.75q1.125 2.109375 3.0625 3.3125q1.953125 1.1875 4.453125 1.1875zm22.201172 4.421875l0 -27.296875l5.359375 0l0 27.296875l-5.359375 0zm2.609375 -33.328125q-1.71875 0 -2.65625 -0.875q-0.9375 -0.890625 -0.9375 -2.515625q0 -1.5 0.953125 -2.4375q0.96875 -0.9375 2.640625 -0.9375q1.703125 0 2.640625 0.890625q0.9375 0.875 0.9375 2.484375q0 1.515625 -0.96875 2.453125q-0.953125 0.9375 -2.609375 0.9375zm10.971619 33.328125l0 -27.296875l5.34375 0l0 5.609375l-0.9375 0.625q0.53125 -1.8125 2.03125 -3.34375q1.515625 -1.546875 3.59375 -2.5q2.078125 -0.96875 4.265625 -0.96875q3.109375 0 5.1875 1.234375q2.09375 1.21875 3.125 3.71875q1.046875 2.484375 1.046875 6.28125l0 16.640625l-5.359375 0l0 -16.28125q0 -2.328125 -0.625 -3.859375q-0.625 -1.546875 -1.921875 -2.25q-1.296875 -0.703125 -3.21875 -0.59375q-1.5625 0 -2.875 0.5q-1.296875 0.484375 -2.265625 1.375q-0.953125 0.875 -1.5 2.046875q-0.546875 1.171875 -0.546875 2.53125l0 16.53125l-2.640625 0q-0.6875 0 -1.359375 0q-0.671875 0 -1.34375 0zm31.815033 0l0 -27.296875l5.359375 0l0 27.296875l-5.359375 0zm2.609375 -33.328125q-1.71875 0 -2.65625 -0.875q-0.9375 -0.890625 -0.9375 -2.515625q0 -1.5 0.953125 -2.4375q0.96875 -0.9375 2.640625 -0.9375q1.703125 0 2.640625 0.890625q0.9375 0.875 0.9375 2.484375q0 1.515625 -0.96875 2.453125q-0.953125 0.9375 -2.609375 0.9375zm10.971619 33.328125l0 -27.296875l5.34375 0l0 5.609375l-0.9375 0.625q0.53125 -1.8125 2.03125 -3.34375q1.515625 -1.546875 3.59375 -2.5q2.078125 -0.96875 4.265625 -0.96875q3.109375 0 5.1875 1.234375q2.09375 1.21875 3.125 3.71875q1.046875 2.484375 1.046875 6.28125l0 16.640625l-5.359375 0l0 -16.28125q0 -2.328125 -0.625 -3.859375q-0.625 -1.546875 -1.921875 -2.25q-1.296875 -0.703125 -3.21875 -0.59375q-1.5625 0 -2.875 0.5q-1.296875 0.484375 -2.265625 1.375q-0.953125 0.875 -1.5 2.046875q-0.546875 1.171875 -0.546875 2.53125l0 16.53125l-2.640625 0q-0.6875 0 -1.359375 0q-0.671875 0 -1.34375 0zm43.158813 11.953125q-2.921875 0 -5.8125 -0.90625q-2.875 -0.90625 -4.640625 -2.359375l1.96875 -4.15625q1.046875 0.765625 2.453125 1.359375q1.40625 0.609375 2.953125 0.9375q1.5625 0.34375 3.078125 0.34375q2.859375 0 4.78125 -0.9375q1.921875 -0.9375 2.90625 -2.765625q0.984375 -1.8125 0.984375 -4.515625l0 -5.25l0.578125 0.375q-0.265625 1.609375 -1.703125 3.09375q-1.421875 1.46875 -3.546875 2.40625q-2.125 0.9375 -4.375 0.9375q-3.890625 0 -6.9375 -1.84375q-3.046875 -1.84375 -4.8125 -5.03125q-1.765625 -3.203125 -1.765625 -7.3125q0 -4.109375 1.734375 -7.3125q1.75 -3.203125 4.78125 -5.046875q3.046875 -1.84375 6.84375 -1.84375q1.5625 0 3.015625 0.390625q1.46875 0.390625 2.703125 1.09375q1.25 0.703125 2.234375 1.53125q1.0 0.828125 1.625 1.765625q0.625 0.9375 0.78125 1.78125l-1.15625 0.40625l0 -6.390625l5.359375 0l0 25.640625q0 3.265625 -0.96875 5.78125q-0.953125 2.53125 -2.78125 4.265625q-1.8125 1.75 -4.421875 2.65625q-2.59375 0.90625 -5.859375 0.90625zm0.203125 -16.375q2.546875 0 4.515625 -1.1875q1.984375 -1.203125 3.078125 -3.28125q1.09375 -2.078125 1.09375 -4.78125q0 -2.703125 -1.125 -4.8125q-1.109375 -2.109375 -3.0625 -3.296875q-1.953125 -1.203125 -4.5 -1.203125q-2.5 0 -4.453125 1.21875q-1.9375 1.21875 -3.0625 3.328125q-1.109375 2.109375 -1.109375 4.765625q0 2.640625 1.109375 4.75q1.125 2.109375 3.0625 3.3125q1.953125 1.1875 4.453125 1.1875zm46.38617 4.9375q-3.375 0 -6.171875 -1.859375q-2.78125 -1.875 -4.453125 -5.09375q-1.65625 -3.234375 -1.65625 -7.296875q0 -4.109375 1.6875 -7.296875q1.703125 -3.203125 4.578125 -5.015625q2.890625 -1.828125 6.484375 -1.828125q2.125 0 3.890625 0.625q1.78125 0.625 3.09375 1.75q1.328125 1.109375 2.1875 2.578125q0.859375 1.453125 1.0625 3.109375l-1.1875 -0.421875l0 -7.0625l5.40625 0l0 27.296875l-5.40625 0l0 -6.5l1.25 -0.359375q-0.3125 1.40625 -1.28125 2.734375q-0.953125 1.3125 -2.4375 2.359375q-1.484375 1.03125 -3.28125 1.65625q-1.796875 0.625 -3.765625 0.625zm1.40625 -4.9375q2.4375 0 4.3125 -1.1875q1.875 -1.203125 2.9375 -3.3125q1.0625 -2.109375 1.0625 -4.8125q0 -2.640625 -1.0625 -4.71875q-1.0625 -2.09375 -2.9375 -3.28125q-1.875 -1.203125 -4.3125 -1.203125q-2.390625 0 -4.25 1.203125q-1.84375 1.1875 -2.90625 3.28125q-1.0625 2.078125 -1.0625 4.71875q0 2.703125 1.0625 4.8125q1.0625 2.109375 2.90625 3.3125q1.859375 1.1875 4.25 1.1875zm42.27289 4.421875l-9.3125 -27.296875l5.40625 -0.0625l6.65625 20.4375l-1.1875 -0.09375l7.21875 -15.96875l3.234375 0l7.28125 16.015625l-1.40625 0.109375l6.703125 -20.4375l5.40625 0l-9.203125 27.296875l-3.6875 0l-7.59375 -17.375l1.1875 0.15625l-7.0625 17.21875l-3.640625 0zm46.38257 0.515625q-4.0 0 -7.15625 -1.84375q-3.140625 -1.84375 -4.96875 -5.03125q-1.8125 -3.203125 -1.8125 -7.3125q0 -4.109375 1.8125 -7.3125q1.828125 -3.203125 4.96875 -5.046875q3.15625 -1.84375 7.15625 -1.84375q3.953125 0 7.09375 1.84375q3.15625 1.84375 4.96875 5.046875q1.828125 3.203125 1.828125 7.3125q0 4.109375 -1.828125 7.3125q-1.8125 3.1875 -4.96875 5.03125q-3.140625 1.84375 -7.09375 1.84375zm0 -4.890625q2.4375 0 4.359375 -1.21875q1.9375 -1.21875 3.015625 -3.328125q1.09375 -2.109375 1.046875 -4.75q0.046875 -2.703125 -1.046875 -4.8125q-1.078125 -2.109375 -3.015625 -3.296875q-1.921875 -1.203125 -4.359375 -1.203125q-2.4375 0 -4.390625 1.21875q-1.953125 1.21875 -3.046875 3.328125q-1.09375 2.109375 -1.03125 4.765625q-0.0625 2.640625 1.03125 4.75q1.09375 2.109375 3.046875 3.328125q1.953125 1.21875 4.390625 1.21875zm19.714355 4.375l0 -27.296875l5.40625 0l0 8.578125l-0.53125 -2.078125q0.578125 -1.984375 1.953125 -3.59375q1.375 -1.609375 3.171875 -2.546875q1.796875 -0.9375 3.71875 -0.9375q0.890625 0 1.6875 0.15625q0.8125 0.15625 1.28125 0.359375l-1.40625 5.828125q-0.625 -0.25 -1.375 -0.4375q-0.75 -0.1875 -1.484375 -0.1875q-1.40625 0 -2.6875 0.546875q-1.265625 0.546875 -2.234375 1.515625q-0.953125 0.953125 -1.53125 2.234375q-0.5625 1.265625 -0.5625 2.78125l0 15.078125l-5.40625 0zm21.049805 0l0 -38.484375l5.359375 0l0 38.484375l-5.359375 0zm23.813232 0.515625q-3.734375 0 -6.671875 -1.84375q-2.9375 -1.84375 -4.65625 -5.03125q-1.71875 -3.203125 -1.71875 -7.3125q0 -4.109375 1.6875 -7.3125q1.6875 -3.203125 4.59375 -5.046875q2.921875 -1.84375 6.609375 -1.84375q2.03125 0 3.921875 0.65625q1.90625 0.640625 3.40625 1.765625q1.515625 1.109375 2.375 2.4375q0.859375 1.328125 0.859375 2.6875l-1.5625 0.09375l0 -18.25l5.359375 0l0 38.484375l-5.359375 0l0 -6.5l1.046875 0q0 1.25 -0.84375 2.46875q-0.828125 1.21875 -2.203125 2.265625q-1.375 1.03125 -3.171875 1.65625q-1.796875 0.625 -3.671875 0.625zm0.734375 -4.625q2.4375 0 4.3125 -1.25q1.875 -1.25 2.9375 -3.40625q1.078125 -2.15625 1.078125 -4.90625q0 -2.765625 -1.078125 -4.921875q-1.0625 -2.15625 -2.9375 -3.40625q-1.875 -1.25 -4.3125 -1.25q-2.4375 0 -4.3125 1.25q-1.875 1.25 -2.9375 3.40625q-1.0625 2.15625 -1.0625 4.921875q0 2.75 1.0625 4.90625q1.0625 2.15625 2.9375 3.40625q1.875 1.25 4.3125 1.25z" fill-rule="nonzero"/><path fill="#000000" d="m197.45888 289.39243l-9.3125 -27.296875l5.40625 -0.0625l6.65625 20.4375l-1.1875 -0.09375l7.21875 -15.96875l3.234375 0l7.28125 16.015625l-1.40625 0.109375l6.703125 -20.4375l5.40625 0l-9.203125 27.296875l-3.6875 0l-7.59375 -17.375l1.1875 0.15625l-7.0625 17.21875l-3.640625 0zm34.89691 0l0 -38.48436l5.34375 0l0 16.79686l-0.9375 0.625q0.53125 -1.8125 2.03125 -3.34375q1.515625 -1.546875 3.59375 -2.5q2.078125 -0.96875 4.265625 -0.96875q3.109375 0 5.1875 1.234375q2.09375 1.21875 3.125 3.71875q1.0468597 2.484375 1.0468597 6.28125l0 16.640625l-5.3593597 0l0 -16.28125q0 -2.328125 -0.625 -3.859375q-0.625 -1.546875 -1.921875 -2.25q-1.296875 -0.703125 -3.21875 -0.59375q-1.5625 0 -2.875 0.5q-1.296875 0.484375 -2.265625 1.375q-0.953125 0.875 -1.5 2.046875q-0.546875 1.171875 -0.546875 2.53125l0 16.53125l-2.640625 0q-0.6875 0 -1.359375 0q-0.671875 0 -1.34375 0zm43.674393 0.515625q-4.21875 0 -7.46875 -1.78125q-3.25 -1.796875 -5.09375 -4.921875q-1.84375 -3.125 -1.84375 -7.171875q0 -3.234375 1.03125 -5.875q1.046875 -2.65625 2.890625 -4.609375q1.859375 -1.953125 4.421875 -3.015625q2.578125 -1.0625 5.59375 -1.0625q2.65625 0 4.9375 1.015625q2.296875 1.015625 3.984375 2.78125q1.6875 1.765625 2.59375 4.1875q0.90625 2.40625 0.859375 5.28125l-0.046875 2.28125l-22.3125 0l-1.1875 -4.265625l18.875 0l-0.78125 0.890625l0 -1.25q-0.15625 -1.71875 -1.15625 -3.0625q-0.984375 -1.359375 -2.5 -2.140625q-1.5 -0.78125 -3.265625 -0.78125q-2.8125 0 -4.734375 1.0625q-1.921875 1.0625 -2.90625 3.125q-0.984375 2.046875 -0.984375 5.0625q0 2.859375 1.1875 4.96875q1.203125 2.109375 3.375 3.25q2.1875 1.140625 5.046875 1.140625q2.03125 0 3.765625 -0.671875q1.75 -0.671875 3.78125 -2.4375l2.703125 3.796875q-1.25 1.25 -3.046875 2.1875q-1.796875 0.921875 -3.796875 1.46875q-2.0 0.546875 -3.921875 0.546875zm17.73767 -0.515625l0 -27.296875l5.40625 0l0 8.578125l-0.53125 -2.078125q0.578125 -1.984375 1.953125 -3.59375q1.375 -1.609375 3.171875 -2.546875q1.796875 -0.9375 3.71875 -0.9375q0.890625 0 1.6875 0.15625q0.8125 0.15625 1.28125 0.359375l-1.40625 5.828125q-0.625 -0.25 -1.375 -0.4375q-0.75 -0.1875 -1.484375 -0.1875q-1.40625 0 -2.6875 0.546875q-1.265625 0.546875 -2.234375 1.515625q-0.953125 0.953125 -1.53125 2.234375q-0.5625 1.265625 -0.5625 2.78125l0 15.078125l-5.40625 0zm32.546387 0.515625q-4.21875 0 -7.46875 -1.78125q-3.25 -1.796875 -5.09375 -4.921875q-1.84375 -3.125 -1.84375 -7.171875q0 -3.234375 1.03125 -5.875q1.046875 -2.65625 2.890625 -4.609375q1.859375 -1.953125 4.421875 -3.015625q2.578125 -1.0625 5.59375 -1.0625q2.65625 0 4.9375 1.015625q2.296875 1.015625 3.984375 2.78125q1.6875 1.765625 2.59375 4.1875q0.90625 2.40625 0.859375 5.28125l-0.046875 2.28125l-22.3125 0l-1.1875 -4.265625l18.875 0l-0.78125 0.890625l0 -1.25q-0.15625 -1.71875 -1.15625 -3.0625q-0.984375 -1.359375 -2.5 -2.140625q-1.5 -0.78125 -3.265625 -0.78125q-2.8125 0 -4.734375 1.0625q-1.921875 1.0625 -2.90625 3.125q-0.984375 2.046875 -0.984375 5.0625q0 2.859375 1.1875 4.96875q1.203125 2.109375 3.375 3.25q2.1875 1.140625 5.046875 1.140625q2.03125 0 3.765625 -0.671875q1.75 -0.671875 3.78125 -2.4375l2.703125 3.796875q-1.25 1.25 -3.046875 2.1875q-1.796875 0.921875 -3.796875 1.46875q-2.0 0.546875 -3.921875 0.546875zm41.39142 0q-3.4375 0 -6.1875 -1.1875q-2.75 -1.203125 -4.578125 -3.546875l3.640625 -3.109375q1.5625 1.8125 3.40625 2.625q1.84375 0.796875 4.1875 0.796875q0.9375 0 1.734375 -0.234375q0.8125 -0.234375 1.40625 -0.6875q0.609375 -0.46875 0.921875 -1.125q0.3125 -0.65625 0.3125 -1.4375q0 -1.34375 -1.0 -2.171875q-0.515625 -0.375 -1.640625 -0.8125q-1.109375 -0.4375 -2.875 -0.90625q-3.015625 -0.78125 -4.953125 -1.765625q-1.921875 -1.0 -2.953125 -2.234375q-0.78125 -1.0 -1.15625 -2.15625q-0.359375 -1.171875 -0.359375 -2.578125q0 -1.71875 0.75 -3.140625q0.765625 -1.4375 2.09375 -2.5q1.328125 -1.078125 3.109375 -1.640625q1.796875 -0.578125 3.828125 -0.578125q1.921875 0 3.8125 0.53125q1.90625 0.515625 3.515625 1.5q1.609375 0.984375 2.703125 2.34375l-3.0625 3.375q-0.984375 -0.984375 -2.15625 -1.734375q-1.171875 -0.765625 -2.375 -1.171875q-1.1875 -0.421875 -2.171875 -0.421875q-1.09375 0 -1.984375 0.21875q-0.875 0.203125 -1.484375 0.625q-0.59375 0.40625 -0.90625 1.03125q-0.3125 0.625 -0.3125 1.40625q0.046875 0.671875 0.328125 1.28125q0.296875 0.59375 0.8125 1.0q0.578125 0.421875 1.71875 0.890625q1.140625 0.46875 2.921875 0.875q2.59375 0.6875 4.28125 1.5q1.6875 0.796875 2.6875 1.828125q1.03125 1.0 1.4375 2.296875q0.421875 1.296875 0.421875 2.90625q0 2.34375 -1.328125 4.1875q-1.3125 1.84375 -3.5625 2.890625q-2.234375 1.03125 -4.984375 1.03125zm28.079895 0q-4.0 0 -7.15625 -1.84375q-3.140625 -1.84375 -4.96875 -5.03125q-1.8125 -3.203125 -1.8125 -7.3125q0 -4.109375 1.8125 -7.3125q1.828125 -3.203125 4.96875 -5.046875q3.15625 -1.84375 7.15625 -1.84375q3.953125 0 7.09375 1.84375q3.15625 1.84375 4.96875 5.046875q1.828125 3.203125 1.828125 7.3125q0 4.109375 -1.828125 7.3125q-1.8125 3.1875 -4.96875 5.03125q-3.140625 1.84375 -7.09375 1.84375zm0 -4.890625q2.4375 0 4.359375 -1.21875q1.9375 -1.21875 3.015625 -3.328125q1.09375 -2.109375 1.046875 -4.75q0.046875 -2.703125 -1.046875 -4.8125q-1.078125 -2.109375 -3.015625 -3.296875q-1.921875 -1.203125 -4.359375 -1.203125q-2.4375 0 -4.390625 1.21875q-1.953125 1.21875 -3.046875 3.328125q-1.09375 2.109375 -1.03125 4.765625q-0.0625 2.640625 1.03125 4.75q1.09375 2.109375 3.046875 3.328125q1.953125 1.21875 4.390625 1.21875zm29.276886 4.890625q-2.90625 0 -5.078125 -1.34375q-2.15625 -1.359375 -3.328125 -3.796875q-1.15625 -2.453125 -1.15625 -5.828125l0 -16.84375l5.34375 0l0 15.390625q0 2.390625 0.75 4.140625q0.765625 1.734375 2.1875 2.671875q1.4375 0.9375 3.46875 0.9375q1.5 0 2.75 -0.484375q1.25 -0.5 2.15625 -1.390625q0.90625 -0.890625 1.421875 -2.125q0.53125 -1.25 0.53125 -2.71875l0 -16.421875l5.359375 0l0 27.296875l-5.359375 0l0 -5.71875l0.9375 -0.625q-0.625 1.921875 -2.109375 3.484375q-1.484375 1.5625 -3.515625 2.46875q-2.015625 0.90625 -4.359375 0.90625zm21.897522 -0.515625l0 -27.296875l5.34375 0l0 5.609375l-0.9375 0.625q0.53125 -1.8125 2.03125 -3.34375q1.515625 -1.546875 3.59375 -2.5q2.078125 -0.96875 4.265625 -0.96875q3.109375 0 5.1875 1.234375q2.09375 1.21875 3.125 3.71875q1.046875 2.484375 1.046875 6.28125l0 16.640625l-5.359375 0l0 -16.28125q0 -2.328125 -0.625 -3.859375q-0.625 -1.546875 -1.921875 -2.25q-1.296875 -0.703125 -3.21875 -0.59375q-1.5625 0 -2.875 0.5q-1.296875 0.484375 -2.265625 1.375q-0.953125 0.875 -1.5 2.046875q-0.546875 1.171875 -0.546875 2.53125l0 16.53125l-2.640625 0q-0.6875 0 -1.359375 0q-0.671875 0 -1.34375 0zm42.315033 0.515625q-3.734375 0 -6.671875 -1.84375q-2.9375 -1.84375 -4.65625 -5.03125q-1.71875 -3.203125 -1.71875 -7.3125q0 -4.109375 1.6875 -7.3125q1.6875 -3.203125 4.59375 -5.046875q2.921875 -1.84375 6.609375 -1.84375q2.03125 0 3.921875 0.65625q1.90625 0.640625 3.40625 1.765625q1.515625 1.109375 2.375 2.4375q0.859375 1.328125 0.859375 2.6875l-1.5625 0.09375l0 -18.249985l5.359375 0l0 38.48436l-5.359375 0l0 -6.5l1.046875 0q0 1.25 -0.84375 2.46875q-0.828125 1.21875 -2.203125 2.265625q-1.375 1.03125 -3.171875 1.65625q-1.796875 0.625 -3.671875 0.625zm0.734375 -4.625q2.4375 0 4.3125 -1.25q1.875 -1.25 2.9375 -3.40625q1.078125 -2.15625 1.078125 -4.90625q0 -2.765625 -1.078125 -4.921875q-1.0625 -2.15625 -2.9375 -3.40625q-1.875 -1.25 -4.3125 -1.25q-2.4375 0 -4.3125 1.25q-1.875 1.25 -2.9375 3.40625q-1.0625 2.15625 -1.0625 4.921875q0 2.75 1.0625 4.90625q1.0625 2.15625 2.9375 3.40625q1.875 1.25 4.3125 1.25zm29.952423 4.625q-3.4375 0 -6.1875 -1.1875q-2.75 -1.203125 -4.578125 -3.546875l3.640625 -3.109375q1.5625 1.8125 3.40625 2.625q1.84375 0.796875 4.1875 0.796875q0.9375 0 1.734375 -0.234375q0.8125 -0.234375 1.40625 -0.6875q0.609375 -0.46875 0.921875 -1.125q0.3125 -0.65625 0.3125 -1.4375q0 -1.34375 -1.0 -2.171875q-0.515625 -0.375 -1.640625 -0.8125q-1.109375 -0.4375 -2.875 -0.90625q-3.015625 -0.78125 -4.953125 -1.765625q-1.921875 -1.0 -2.953125 -2.234375q-0.78125 -1.0 -1.15625 -2.15625q-0.359375 -1.171875 -0.359375 -2.578125q0 -1.71875 0.75 -3.140625q0.765625 -1.4375 2.09375 -2.5q1.328125 -1.078125 3.109375 -1.640625q1.796875 -0.578125 3.828125 -0.578125q1.921875 0 3.8125 0.53125q1.90625 0.515625 3.515625 1.5q1.609375 0.984375 2.703125 2.34375l-3.0625 3.375q-0.984375 -0.984375 -2.15625 -1.734375q-1.171875 -0.765625 -2.375 -1.171875q-1.1875 -0.421875 -2.171875 -0.421875q-1.09375 0 -1.984375 0.21875q-0.875 0.203125 -1.484375 0.625q-0.59375 0.40625 -0.90625 1.03125q-0.3125 0.625 -0.3125 1.40625q0.046875 0.671875 0.328125 1.28125q0.296875 0.59375 0.8125 1.0q0.578125 0.421875 1.71875 0.890625q1.140625 0.46875 2.921875 0.875q2.59375 0.6875 4.28125 1.5q1.6875 0.796875 2.6875 1.828125q1.03125 1.0 1.4375 2.296875q0.421875 1.296875 0.421875 2.90625q0 2.34375 -1.328125 4.1875q-1.3125 1.84375 -3.5625 2.890625q-2.234375 1.03125 -4.984375 1.03125zm40.874268 0q-3.375 0 -6.171875 -1.859375q-2.78125 -1.875 -4.453125 -5.09375q-1.65625 -3.234375 -1.65625 -7.296875q0 -4.109375 1.6875 -7.296875q1.703125 -3.203125 4.578125 -5.015625q2.890625 -1.828125 6.484375 -1.828125q2.125 0 3.890625 0.625q1.78125 0.625 3.09375 1.75q1.328125 1.109375 2.1875 2.578125q0.859375 1.453125 1.0625 3.109375l-1.1875 -0.421875l0 -7.0625l5.40625 0l0 27.296875l-5.40625 0l0 -6.5l1.25 -0.359375q-0.3125 1.40625 -1.28125 2.734375q-0.953125 1.3125 -2.4375 2.359375q-1.484375 1.03125 -3.28125 1.65625q-1.796875 0.625 -3.765625 0.625zm1.40625 -4.9375q2.4375 0 4.3125 -1.1875q1.875 -1.203125 2.9375 -3.3125q1.0625 -2.109375 1.0625 -4.8125q0 -2.640625 -1.0625 -4.71875q-1.0625 -2.09375 -2.9375 -3.28125q-1.875 -1.203125 -4.3125 -1.203125q-2.390625 0 -4.25 1.203125q-1.84375 1.1875 -2.90625 3.28125q-1.0625 2.078125 -1.0625 4.71875q0 2.703125 1.0625 4.8125q1.0625 2.109375 2.90625 3.3125q1.859375 1.1875 4.25 1.1875zm21.009766 4.421875l0 -27.296875l5.40625 0l0 8.578125l-0.53125 -2.078125q0.578125 -1.984375 1.953125 -3.59375q1.375 -1.609375 3.171875 -2.546875q1.796875 -0.9375 3.71875 -0.9375q0.890625 0 1.6875 0.15625q0.8125 0.15625 1.28125 0.359375l-1.40625 5.828125q-0.625 -0.25 -1.375 -0.4375q-0.75 -0.1875 -1.484375 -0.1875q-1.40625 0 -2.6875 0.546875q-1.265625 0.546875 -2.234375 1.515625q-0.953125 0.953125 -1.53125 2.234375q-0.5625 1.265625 -0.5625 2.78125l0 15.078125l-5.40625 0zm32.546387 0.515625q-4.21875 0 -7.46875 -1.78125q-3.25 -1.796875 -5.09375 -4.921875q-1.84375 -3.125 -1.84375 -7.171875q0 -3.234375 1.03125 -5.875q1.046875 -2.65625 2.890625 -4.609375q1.859375 -1.953125 4.421875 -3.015625q2.578125 -1.0625 5.59375 -1.0625q2.65625 0 4.9375 1.015625q2.296875 1.015625 3.984375 2.78125q1.6875 1.765625 2.59375 4.1875q0.90625 2.40625 0.859375 5.28125l-0.046875 2.28125l-22.3125 0l-1.1875 -4.265625l18.875 0l-0.78125 0.890625l0 -1.25q-0.15625 -1.71875 -1.15625 -3.0625q-0.984375 -1.359375 -2.5 -2.140625q-1.5 -0.78125 -3.265625 -0.78125q-2.8125 0 -4.734375 1.0625q-1.921875 1.0625 -2.90625 3.125q-0.984375 2.046875 -0.984375 5.0625q0 2.859375 1.1875 4.96875q1.203125 2.109375 3.375 3.25q2.1875 1.140625 5.046875 1.140625q2.03125 0 3.765625 -0.671875q1.75 -0.671875 3.78125 -2.4375l2.703125 3.796875q-1.25 1.25 -3.046875 2.1875q-1.796875 0.921875 -3.796875 1.46875q-2.0 0.546875 -3.921875 0.546875zm41.39142 0q-3.4375 0 -6.1875 -1.1875q-2.75 -1.203125 -4.578125 -3.546875l3.640625 -3.109375q1.5625 1.8125 3.40625 2.625q1.84375 0.796875 4.1875 0.796875q0.9375 0 1.734375 -0.234375q0.8125 -0.234375 1.40625 -0.6875q0.609375 -0.46875 0.921875 -1.125q0.3125 -0.65625 0.3125 -1.4375q0 -1.34375 -1.0 -2.171875q-0.515625 -0.375 -1.640625 -0.8125q-1.109375 -0.4375 -2.875 -0.90625q-3.015625 -0.78125 -4.953125 -1.765625q-1.921875 -1.0 -2.953125 -2.234375q-0.78125 -1.0 -1.15625 -2.15625q-0.359375 -1.171875 -0.359375 -2.578125q0 -1.71875 0.75 -3.140625q0.765625 -1.4375 2.09375 -2.5q1.328125 -1.078125 3.109375 -1.640625q1.796875 -0.578125 3.828125 -0.578125q1.921875 0 3.8125 0.53125q1.90625 0.515625 3.515625 1.5q1.609375 0.984375 2.703125 2.34375l-3.0625 3.375q-0.984375 -0.984375 -2.15625 -1.734375q-1.171875 -0.765625 -2.375 -1.171875q-1.1875 -0.421875 -2.171875 -0.421875q-1.09375 0 -1.984375 0.21875q-0.875 0.203125 -1.484375 0.625q-0.59375 0.40625 -0.90625 1.03125q-0.3125 0.625 -0.3125 1.40625q0.046875 0.671875 0.328125 1.28125q0.296875 0.59375 0.8125 1.0q0.578125 0.421875 1.71875 0.890625q1.140625 0.46875 2.921875 0.875q2.59375 0.6875 4.28125 1.5q1.6875 0.796875 2.6875 1.828125q1.03125 1.0 1.4375 2.296875q0.421875 1.296875 0.421875 2.90625q0 2.34375 -1.328125 4.1875q-1.3125 1.84375 -3.5625 2.890625q-2.234375 1.03125 -4.984375 1.03125zm26.31427 0q-3.375 0 -6.171875 -1.859375q-2.78125 -1.875 -4.453125 -5.09375q-1.65625 -3.234375 -1.65625 -7.296875q0 -4.109375 1.6875 -7.296875q1.703125 -3.203125 4.578125 -5.015625q2.890625 -1.828125 6.484375 -1.828125q2.125 0 3.890625 0.625q1.78125 0.625 3.09375 1.75q1.328125 1.109375 2.1875 2.578125q0.859375 1.453125 1.0625 3.109375l-1.1875 -0.421875l0 -7.0625l5.40625 0l0 27.296875l-5.40625 0l0 -6.5l1.25 -0.359375q-0.3125 1.40625 -1.28125 2.734375q-0.953125 1.3125 -2.4375 2.359375q-1.484375 1.03125 -3.28125 1.65625q-1.796875 0.625 -3.765625 0.625zm1.40625 -4.9375q2.4375 0 4.3125 -1.1875q1.875 -1.203125 2.9375 -3.3125q1.0625 -2.109375 1.0625 -4.8125q0 -2.640625 -1.0625 -4.71875q-1.0625 -2.09375 -2.9375 -3.28125q-1.875 -1.203125 -4.3125 -1.203125q-2.390625 0 -4.25 1.203125q-1.84375 1.1875 -2.90625 3.28125q-1.0625 2.078125 -1.0625 4.71875q0 2.703125 1.0625 4.8125q1.0625 2.109375 2.90625 3.3125q1.859375 1.1875 4.25 1.1875zm23.96289 4.421875l0 -30.375q0 -2.328125 1.03125 -4.1406097q1.046875 -1.828125 2.859375 -2.859375q1.828125 -1.046875 4.21875 -1.046875q1.671875 0 3.125 0.625q1.453125 0.609375 2.34375 1.65625l-1.828125 4.1093597q-0.671875 -0.625 -1.484375 -1.015625q-0.796875 -0.39060974 -1.53125 -0.39060974q-1.078125 0 -1.84375 0.34373474q-0.75 0.328125 -1.125 1.03125q-0.359375 0.703125 -0.359375 1.6875l0 30.375l-2.703125 0q-0.671875 0 -1.34375 0q-0.671875 0 -1.359375 0zm-4.359375 -21.890625l0 -4.9375l16.21875 0l0 4.9375l-16.21875 0zm33.53662 22.40625q-4.21875 0 -7.46875 -1.78125q-3.25 -1.796875 -5.09375 -4.921875q-1.84375 -3.125 -1.84375 -7.171875q0 -3.234375 1.03125 -5.875q1.046875 -2.65625 2.890625 -4.609375q1.859375 -1.953125 4.421875 -3.015625q2.578125 -1.0625 5.59375 -1.0625q2.65625 0 4.9375 1.015625q2.296875 1.015625 3.984375 2.78125q1.6875 1.765625 2.59375 4.1875q0.90625 2.40625 0.859375 5.28125l-0.046875 2.28125l-22.3125 0l-1.1875 -4.265625l18.875 0l-0.78125 0.890625l0 -1.25q-0.15625 -1.71875 -1.15625 -3.0625q-0.984375 -1.359375 -2.5 -2.140625q-1.5 -0.78125 -3.265625 -0.78125q-2.8125 0 -4.734375 1.0625q-1.921875 1.0625 -2.90625 3.125q-0.984375 2.046875 -0.984375 5.0625q0 2.859375 1.1875 4.96875q1.203125 2.109375 3.375 3.25q2.1875 1.140625 5.046875 1.140625q2.03125 0 3.765625 -0.671875q1.75 -0.671875 3.78125 -2.4375l2.703125 3.796875q-1.25 1.25 -3.046875 2.1875q-1.796875 0.921875 -3.796875 1.46875q-2.0 0.546875 -3.921875 0.546875zm17.73767 -0.515625l0 -27.296875l5.40625 0l0 8.578125l-0.53125 -2.078125q0.578125 -1.984375 1.953125 -3.59375q1.375 -1.609375 3.171875 -2.546875q1.796875 -0.9375 3.71875 -0.9375q0.890625 0 1.6875 0.15625q0.8125 0.15625 1.28125 0.359375l-1.40625 5.828125q-0.625 -0.25 -1.375 -0.4375q-0.75 -0.1875 -1.484375 -0.1875q-1.40625 0 -2.6875 0.546875q-1.265625 0.546875 -2.234375 1.515625q-0.953125 0.953125 -1.53125 2.234375q-0.5625 1.265625 -0.5625 2.78125l0 15.078125l-5.40625 0z" fill-rule="nonzero"/><path fill="#000000" fill-opacity="0.0" d="m27.871391 55.750656l395.33856 0l0 64.62992l-395.33856 0z" fill-rule="evenodd"/><path fill="#000000" d="m52.324516 106.63753q-3.25 0 -5.84375 -1.0q-2.59375 -0.984375 -4.40625 -2.796875q-1.8125 -1.796875 -2.765625 -4.328125q-0.9375 -2.546875 -0.9375 -5.609375q0 -4.375 1.546875 -7.859375q1.546875 -3.484375 4.28125 -5.921875q2.75 -2.453125 6.390625 -3.734375q3.640625 -1.296875 7.78125 -1.296875q2.984375 0 5.375 0.84375q2.390625 0.828125 4.109375 2.40625q1.71875 1.5625 2.625 3.71875q0.921875 2.140625 0.921875 4.75q0 2.578125 -0.734375 4.90625q-0.71875 2.328125 -2.03125 4.140625q-1.3125 1.8125 -3.046875 2.859375q-1.734375 1.046875 -3.75 1.046875q-1.421875 0 -2.546875 -0.484375q-1.109375 -0.484375 -1.734375 -1.359375q-0.609375 -0.875 -0.609375 -2.046875q0 -0.59375 0.046875 -1.234375q0.0625 -0.65625 0.109375 -1.328125l0.96875 0.734375q-0.59375 1.828125 -1.546875 3.109375q-0.953125 1.265625 -2.203125 1.9375q-1.25 0.671875 -2.75 0.671875q-1.71875 0 -3.0625 -0.890625q-1.34375 -0.90625 -2.125 -2.46875q-0.78125 -1.5625 -0.78125 -3.65625q0 -1.828125 0.671875 -3.6875q0.671875 -1.875 1.921875 -3.4375q1.25 -1.578125 2.890625 -2.53125q1.640625 -0.953125 3.59375 -0.953125q1.15625 0 2.0625 0.609375q0.921875 0.59375 1.5 1.671875q0.578125 1.078125 0.6875 2.5l-1.15625 1.046875l1.078125 -5.40625l5.375 0l-2.203125 11.796875q-0.109375 0.625 0.078125 0.984375q0.1875 0.359375 0.53125 0.546875q0.359375 0.171875 0.78125 0.171875q1.03125 0 1.921875 -0.71875q0.90625 -0.734375 1.5625 -1.984375q0.65625 -1.25 1.03125 -2.890625q0.375 -1.640625 0.375 -3.46875q0 -2.84375 -1.21875 -4.828125q-1.21875 -2.0 -3.5 -3.078125q-2.265625 -1.09375 -5.4375 -1.09375q-3.84375 0 -6.9375 1.09375q-3.078125 1.078125 -5.25 3.109375q-2.15625 2.03125 -3.3125 4.96875q-1.15625 2.921875 -1.15625 6.625q0 2.578125 0.71875 4.578125q0.734375 1.984375 2.109375 3.40625q1.390625 1.421875 3.4375 2.140625q2.0625 0.734375 4.671875 0.734375q1.75 0 3.015625 -0.25q1.28125 -0.234375 2.4375 -0.75q1.15625 -0.5 2.578125 -1.234375l1.375 2.5q-2.203125 1.109375 -3.765625 1.6875q-1.5625 0.578125 -2.90625 0.796875q-1.34375 0.234375 -2.84375 0.234375zm0.828125 -12.390625q0.96875 0 1.875 -0.625q0.921875 -0.640625 1.59375 -1.6875q0.671875 -1.046875 0.890625 -2.359375q0.078125 -0.515625 0.140625 -0.9375q0.078125 -0.4375 0.078125 -0.84375q0 -0.71875 -0.25 -1.25q-0.234375 -0.546875 -0.734375 -0.84375q-0.5 -0.296875 -1.28125 -0.296875q-1.15625 0 -2.109375 0.859375q-0.953125 0.859375 -1.515625 2.28125q-0.5625 1.40625 -0.5625 3.015625q0 1.234375 0.5 1.96875q0.515625 0.71875 1.375 0.71875zm43.623047 6.71875q-2.5625 0 -4.640625 -0.609375q-2.078125 -0.625 -3.6875 -1.796875q-1.59375 -1.171875 -2.859375 -2.78125l3.84375 -4.375q1.859375 2.5 3.75 3.359375q1.890625 0.859375 3.90625 0.859375q1.0 0 1.8125 -0.25q0.828125 -0.265625 1.28125 -0.765625q0.453125 -0.515625 0.453125 -1.25q0 -0.5625 -0.28125 -1.015625q-0.28125 -0.453125 -0.765625 -0.78125q-0.484375 -0.34375 -1.15625 -0.609375q-0.671875 -0.28125 -1.421875 -0.484375q-0.75 -0.21875 -1.53125 -0.359375q-2.171875 -0.484375 -3.78125 -1.1875q-1.59375 -0.71875 -2.65625 -1.75q-1.0625 -1.03125 -1.59375 -2.34375q-0.515625 -1.328125 -0.515625 -2.96875q0 -1.765625 0.796875 -3.234375q0.8125 -1.46875 2.171875 -2.53125q1.359375 -1.0625 3.140625 -1.640625q1.796875 -0.59375 3.734375 -0.59375q2.578125 0 4.421875 0.546875q1.859375 0.546875 3.171875 1.5625q1.328125 1.0 2.265625 2.421875l-3.921875 3.765625q-0.78125 -0.96875 -1.703125 -1.609375q-0.90625 -0.640625 -1.9375 -0.96875q-1.015625 -0.34375 -2.109375 -0.34375q-1.109375 0 -1.921875 0.28125q-0.796875 0.28125 -1.25 0.796875q-0.4375 0.5 -0.4375 1.203125q0 0.640625 0.359375 1.09375q0.375 0.4375 1.015625 0.796875q0.640625 0.359375 1.453125 0.609375q0.828125 0.234375 1.71875 0.375q2.0625 0.40625 3.71875 1.078125q1.65625 0.671875 2.859375 1.65625q1.21875 0.96875 1.875 2.296875q0.65625 1.3125 0.65625 3.078125q0 2.71875 -1.328125 4.609375q-1.328125 1.875 -3.625 2.875q-2.28125 0.984375 -5.28125 0.984375zm21.697357 -0.03125q-2.5 0 -4.46875 -1.328125q-1.953125 -1.328125 -3.109375 -3.65625q-1.15625 -2.34375 -1.15625 -5.28125q0 -3.03125 1.15625 -5.34375q1.15625 -2.3125 3.171875 -3.640625q2.015625 -1.328125 4.59375 -1.328125q1.421875 0 2.59375 0.421875q1.171875 0.40625 2.0625 1.140625q0.90625 0.71875 1.53125 1.671875q0.640625 0.953125 0.9375 2.03125l-1.234375 -0.15625l0 -4.703125l5.9374924 0l0 19.828125l-6.0468674 0l0 -4.78125l1.34375 -0.03125q-0.296875 1.046875 -0.96875 1.984375q-0.671875 0.921875 -1.640625 1.640625q-0.96875 0.703125 -2.171875 1.125q-1.1875 0.40625 -2.53125 0.40625zm1.640625 -5.046875q1.375 0 2.375 -0.625q1.015625 -0.640625 1.578125 -1.8125q0.5625 -1.1875 0.5625 -2.78125q0 -1.609375 -0.5625 -2.78125q-0.5625 -1.1875 -1.578125 -1.828125q-1.0 -0.65625 -2.375 -0.65625q-1.34375 0 -2.34375 0.65625q-0.984375 0.640625 -1.546875 1.828125q-0.546875 1.171875 -0.546875 2.78125q0 1.59375 0.546875 2.78125q0.5625 1.171875 1.546875 1.8125q1.0 0.625 2.34375 0.625zm16.864937 4.703125l0 -20.796875q0 -1.9375 0.84375 -3.5q0.84375 -1.578125 2.34375 -2.484375q1.515625 -0.921875 3.53125 -0.921875q1.421875 0 2.609375 0.421875q1.203125 0.40625 2.140625 1.15625l-1.71875 4.359375q-0.484375 -0.265625 -0.9375 -0.40625q-0.4375 -0.15625 -0.8125 -0.15625q-0.671875 0 -1.125 0.234375q-0.453125 0.21875 -0.65625 0.6875q-0.203125 0.46875 -0.203125 1.140625l0 20.265625l-2.984375 0q-1.015625 0 -1.78125 0q-0.75 0 -1.25 0zm-2.859375 -14.328125l0 -4.9375l12.9375 0l0 4.9375l-12.9375 0zm25.00145 14.703125q-3.28125 0 -5.71875 -1.328125q-2.421875 -1.328125 -3.765625 -3.625q-1.34375 -2.296875 -1.34375 -5.234375q0 -2.28125 0.75 -4.1875q0.75 -1.90625 2.09375 -3.296875q1.34375 -1.40625 3.1875 -2.171875q1.84375 -0.765625 4.046875 -0.765625q2.09375 0 3.828125 0.75q1.734375 0.75 3.0 2.09375q1.28125 1.34375 1.953125 3.171875q0.671875 1.828125 0.59375 3.984375l-0.03125 1.609375l-15.796875 0l-0.859375 -3.359375l11.796875 0l-0.640625 0.71875l0 -0.75q-0.0625 -0.9375 -0.578125 -1.65625q-0.5 -0.734375 -1.328125 -1.140625q-0.8125 -0.421875 -1.859375 -0.421875q-1.453125 0 -2.484375 0.578125q-1.03125 0.578125 -1.546875 1.6875q-0.515625 1.09375 -0.515625 2.703125q0 1.640625 0.6875 2.859375q0.6875 1.203125 2.015625 1.875q1.328125 0.671875 3.15625 0.671875q1.265625 0 2.25 -0.359375q0.984375 -0.375 2.15625 -1.28125l2.796875 3.96875q-1.15625 1.0 -2.46875 1.640625q-1.3125 0.625 -2.671875 0.9375q-1.359375 0.328125 -2.703125 0.328125zm21.718094 0q-2.5625 0 -4.640625 -0.609375q-2.078125 -0.625 -3.6875 -1.796875q-1.59375 -1.171875 -2.859375 -2.78125l3.84375 -4.375q1.859375 2.5 3.75 3.359375q1.890625 0.859375 3.90625 0.859375q1.0 0 1.8125 -0.25q0.828125 -0.265625 1.28125 -0.765625q0.453125 -0.515625 0.453125 -1.25q0 -0.5625 -0.28125 -1.015625q-0.28125 -0.453125 -0.765625 -0.78125q-0.484375 -0.34375 -1.15625 -0.609375q-0.671875 -0.28125 -1.421875 -0.484375q-0.75 -0.21875 -1.53125 -0.359375q-2.171875 -0.484375 -3.78125 -1.1875q-1.59375 -0.71875 -2.65625 -1.75q-1.0625 -1.03125 -1.59375 -2.34375q-0.515625 -1.328125 -0.515625 -2.96875q0 -1.765625 0.796875 -3.234375q0.8125 -1.46875 2.171875 -2.53125q1.359375 -1.0625 3.140625 -1.640625q1.796875 -0.59375 3.734375 -0.59375q2.578125 0 4.421875 0.546875q1.859375 0.546875 3.171875 1.5625q1.328125 1.0 2.265625 2.421875l-3.921875 3.765625q-0.78125 -0.96875 -1.703125 -1.609375q-0.90625 -0.640625 -1.9375 -0.96875q-1.015625 -0.34375 -2.109375 -0.34375q-1.109375 0 -1.921875 0.28125q-0.796875 0.28125 -1.25 0.796875q-0.4375 0.5 -0.4375 1.203125q0 0.640625 0.359375 1.09375q0.375 0.4375 1.015625 0.796875q0.640625 0.359375 1.453125 0.609375q0.828125 0.234375 1.71875 0.375q2.0625 0.40625 3.71875 1.078125q1.65625 0.671875 2.859375 1.65625q1.21875 0.96875 1.875 2.296875q0.65625 1.3125 0.65625 3.078125q0 2.71875 -1.328125 4.609375q-1.328125 1.875 -3.625 2.875q-2.28125 0.984375 -5.28125 0.984375zm23.712982 0q-3.09375 0 -5.515625 -1.34375q-2.40625 -1.34375 -3.8125 -3.65625q-1.390625 -2.3125 -1.390625 -5.296875q0 -3.0 1.390625 -5.3125q1.40625 -2.3125 3.8125 -3.65625q2.421875 -1.34375 5.515625 -1.34375q3.09375 0 5.5 1.34375q2.40625 1.34375 3.78125 3.65625q1.390625 2.3125 1.390625 5.3125q0 2.984375 -1.390625 5.296875q-1.375 2.3125 -3.78125 3.65625q-2.40625 1.34375 -5.5 1.34375zm0 -5.15625q1.34375 0 2.390625 -0.671875q1.046875 -0.671875 1.640625 -1.828125q0.59375 -1.15625 0.5625 -2.640625q0.03125 -1.5 -0.5625 -2.671875q-0.59375 -1.1875 -1.640625 -1.859375q-1.046875 -0.671875 -2.390625 -0.671875q-1.34375 0 -2.40625 0.671875q-1.0625 0.671875 -1.671875 1.859375q-0.59375 1.171875 -0.546875 2.671875q-0.046875 1.484375 0.546875 2.640625q0.609375 1.15625 1.671875 1.828125q1.0625 0.671875 2.40625 0.671875zm21.349274 5.1875q-2.203125 0 -3.75 -0.953125q-1.546875 -0.953125 -2.390625 -2.734375q-0.84375 -1.796875 -0.84375 -4.296875l0 -12.25l6.015625 0l0 11.421875q0 1.203125 0.375 2.0625q0.375 0.859375 1.109375 1.328125q0.75 0.46875 1.796875 0.46875q0.78125 0 1.4375 -0.265625q0.65625 -0.265625 1.125 -0.734375q0.46875 -0.46875 0.71875 -1.078125q0.265625 -0.609375 0.265625 -1.359375l0 -11.84375l6.015625 0l0 19.828125l-5.640625 0l-0.265625 -4.0625l1.125 -0.453125q-0.453125 1.421875 -1.5 2.53125q-1.046875 1.09375 -2.5 1.75q-1.453125 0.640625 -3.09375 0.640625zm17.214737 -0.40625l0 -19.828125l5.671875 0l0.1875 4.03125l-1.203125 0.453125q0.421875 -1.34375 1.484375 -2.4375q1.0625 -1.109375 2.546875 -1.78125q1.5 -0.671875 3.140625 -0.671875q2.2343903 0 3.7656403 0.921875q1.53125 0.90625 2.3125 2.71875q0.796875 1.8125 0.796875 4.421875l0 12.171875l-6.0156403 0l0 -11.6875q0 -1.1875 -0.34375 -1.96875q-0.328125 -0.796875 -1.03125 -1.1875q-0.6875 -0.390625 -1.6875 -0.34375q-0.78125 0 -1.453125 0.25q-0.671875 0.234375 -1.15625 0.703125q-0.484375 0.453125 -0.765625 1.0625q-0.28125 0.59375 -0.28125 1.296875l0 11.875l-2.953125 0q-1.046875 0 -1.796875 0q-0.734375 0 -1.21875 0zm31.203445 0.40625q-2.578125 0 -4.578125 -1.3125q-2.0 -1.328125 -3.15625 -3.65625q-1.15625 -2.34375 -1.15625 -5.328125q0 -2.984375 1.15625 -5.3125q1.15625 -2.34375 3.171875 -3.6875q2.015625 -1.34375 4.640625 -1.34375q1.34375 0 2.5625 0.421875q1.234375 0.40625 2.234375 1.109375q1.015625 0.703125 1.640625 1.625q0.640625 0.921875 0.765625 1.890625l-1.421875 0.328125l0 -12.765625l6.015625 0l0 27.625l-5.5625 0l-0.34375 -4.515625l1.1875 0.1875q-0.109375 0.9375 -0.734375 1.796875q-0.609375 0.84375 -1.578125 1.5q-0.96875 0.65625 -2.21875 1.046875q-1.25 0.390625 -2.625 0.390625zm1.53125 -4.953125q1.375 0 2.375 -0.671875q1.015625 -0.671875 1.546875 -1.859375q0.546875 -1.203125 0.546875 -2.8125q0 -1.640625 -0.546875 -2.828125q-0.53125 -1.203125 -1.546875 -1.875q-1.0 -0.671875 -2.375 -0.671875q-1.390625 0 -2.375 0.671875q-0.984375 0.671875 -1.546875 1.875q-0.5625 1.1875 -0.5625 2.828125q0 1.609375 0.5625 2.8125q0.5625 1.1875 1.546875 1.859375q0.984375 0.671875 2.375 0.671875zm32.654602 4.546875l-7.828125 -26.125l6.453125 0l3.921875 13.734375q0.25 0.9375 0.453125 1.890625q0.21875 0.9375 0.34375 1.796875q0.125 0.859375 0.203125 1.59375q0.078125 0.71875 0.15625 1.21875l-0.828125 0q0.234375 -1.390625 0.390625 -2.46875q0.171875 -1.078125 0.390625 -2.03125q0.234375 -0.953125 0.5625 -2.0l3.890625 -10.34375l5.078125 0l3.796875 10.34375q0.453125 1.234375 0.75 2.3125q0.296875 1.078125 0.46875 2.078125q0.171875 0.984375 0.28125 1.953125l-0.75 0.109375q0.078125 -0.671875 0.109375 -1.25q0.046875 -0.578125 0.09375 -1.109375q0.0625 -0.546875 0.125 -1.140625q0.078125 -0.609375 0.21875 -1.328125q0.15625 -0.734375 0.421875 -1.671875l3.890625 -13.6875l6.296875 0l-7.828125 26.125l-4.859375 0l-6.1875 -15.046875l0.703125 0.078125l-5.71875 14.96875l-5.0 0zm40.24298 0.375q-3.28125 0 -5.71875 -1.328125q-2.421875 -1.328125 -3.765625 -3.625q-1.34375 -2.296875 -1.34375 -5.234375q0 -2.28125 0.75 -4.1875q0.75 -1.90625 2.09375 -3.296875q1.34375 -1.40625 3.1875 -2.171875q1.84375 -0.765625 4.046875 -0.765625q2.09375 0 3.828125 0.75q1.734375 0.75 3.0 2.09375q1.28125 1.34375 1.953125 3.171875q0.671875 1.828125 0.59375 3.984375l-0.03125 1.609375l-15.796875 0l-0.859375 -3.359375l11.796875 0l-0.640625 0.71875l0 -0.75q-0.0625 -0.9375 -0.578125 -1.65625q-0.5 -0.734375 -1.328125 -1.140625q-0.8125 -0.421875 -1.859375 -0.421875q-1.453125 0 -2.484375 0.578125q-1.03125 0.578125 -1.546875 1.6875q-0.515625 1.09375 -0.515625 2.703125q0 1.640625 0.6875 2.859375q0.6875 1.203125 2.015625 1.875q1.328125 0.671875 3.15625 0.671875q1.265625 0 2.25 -0.359375q0.984375 -0.375 2.15625 -1.28125l2.796875 3.96875q-1.15625 1.0 -2.46875 1.640625q-1.3125 0.625 -2.671875 0.9375q-1.359375 0.328125 -2.703125 0.328125zm12.468079 -16.390625l-1.71875 -2.09375q1.5625 -0.671875 2.515625 -1.65625q0.953125 -0.984375 0.953125 -1.65625q0 -0.421875 -0.28125 -0.8125q-0.28125 -0.390625 -0.828125 -0.71875q-0.859375 -0.640625 -1.203125 -1.234375q-0.328125 -0.59375 -0.328125 -1.3125q0 -1.15625 0.828125 -1.828125q0.84375 -0.671875 2.1875 -0.671875q1.125 0 2.03125 0.578125q0.921875 0.578125 1.4375 1.640625q0.53125 1.0625 0.53125 2.453125q0 1.1875 -0.453125 2.328125q-0.453125 1.140625 -1.296875 2.140625q-0.828125 0.984375 -1.953125 1.734375q-1.109375 0.734375 -2.421875 1.109375zm9.151367 16.015625l0 -19.828125l5.671875 0l0.25 6.46875l-1.109375 -1.234375q0.4375 -1.609375 1.46875 -2.875q1.03125 -1.265625 2.40625 -2.015625q1.390625 -0.75 2.953125 -0.75q0.671875 0 1.25 0.109375q0.578125 0.109375 1.0625 0.265625l-1.640625 6.609375q-0.40625 -0.265625 -1.109375 -0.421875q-0.6875 -0.171875 -1.421875 -0.171875q-0.828125 0 -1.546875 0.28125q-0.703125 0.28125 -1.1875 0.796875q-0.484375 0.515625 -0.765625 1.234375q-0.28125 0.703125 -0.28125 1.609375l0 9.921875l-6.0 0zm25.600525 0.375q-3.28125 0 -5.71875 -1.328125q-2.421875 -1.328125 -3.765625 -3.625q-1.34375 -2.296875 -1.34375 -5.234375q0 -2.28125 0.75 -4.1875q0.75 -1.90625 2.09375 -3.296875q1.34375 -1.40625 3.1875 -2.171875q1.84375 -0.765625 4.046875 -0.765625q2.09375 0 3.828125 0.75q1.734375 0.75 3.0 2.09375q1.28125 1.34375 1.953125 3.171875q0.671875 1.828125 0.59375 3.984375l-0.03125 1.609375l-15.796875 0l-0.859375 -3.359375l11.796875 0l-0.640625 0.71875l0 -0.75q-0.0625 -0.9375 -0.578125 -1.65625q-0.5 -0.734375 -1.328125 -1.140625q-0.8125 -0.421875 -1.859375 -0.421875q-1.453125 0 -2.484375 0.578125q-1.03125 0.578125 -1.546875 1.6875q-0.515625 1.09375 -0.515625 2.703125q0 1.640625 0.6875 2.859375q0.6875 1.203125 2.015625 1.875q1.328125 0.671875 3.15625 0.671875q1.265625 0 2.25 -0.359375q0.984375 -0.375 2.15625 -1.28125l2.796875 3.96875q-1.15625 1.0 -2.46875 1.640625q-1.3125 0.625 -2.671875 0.9375q-1.359375 0.328125 -2.703125 0.328125z" fill-rule="nonzero"/><path fill="#4285f3" d="m0 -4.1574802l960.0 0l0 36.503937l-960.0 0z" fill-rule="evenodd"/><path fill="#34a853" d="m479.39108 -4.1574802l480.59842 0l0 36.503937l-480.59842 0z" fill-rule="evenodd"/><path fill="#000000" fill-opacity="0.0" d="m11.267716 479.3622l125.95276 0l0 46.551178l-125.95276 0z" fill-rule="evenodd"/><path fill="#666666" d="m22.486467 491.4267q-0.4375 0 -0.796875 -0.21875q-0.359375 -0.234375 -0.578125 -0.640625q-0.203125 -0.40625 -0.203125 -0.9375q0 -0.421875 0.171875 -0.8125q0.171875 -0.40625 0.484375 -0.75q0.3125 -0.359375 0.734375 -0.625q0.421875 -0.28125 0.890625 -0.421875l0.609375 0.734375q-0.625 0.28125 -1.03125 0.65625q-0.390625 0.359375 -0.390625 0.640625q0 0.203125 0.171875 0.375q0.1875 0.15625 0.328125 0.28125q0.34375 0.28125 0.46875 0.484375q0.125 0.1875 0.125 0.390625q0 0.390625 -0.28125 0.625q-0.265625 0.21875 -0.703125 0.21875z" fill-rule="nonzero"/><path fill="#34a853" d="m26.34247 491.4267q-0.4375 0 -0.796875 -0.21875q-0.359375 -0.234375 -0.578125 -0.640625q-0.203125 -0.40625 -0.203125 -0.9375q0 -0.421875 0.171875 -0.8125q0.171875 -0.40625 0.484375 -0.75q0.3125 -0.359375 0.734375 -0.625q0.421875 -0.28125 0.890625 -0.421875l0.609375 0.734375q-0.625 0.28125 -1.03125 0.65625q-0.390625 0.359375 -0.390625 0.640625q0 0.203125 0.171875 0.375q0.1875 0.15625 0.328125 0.28125q0.34375 0.28125 0.46875 0.484375q0.125 0.1875 0.125 0.390625q0 0.390625 -0.28125 0.625q-0.265625 0.21875 -0.703125 0.21875z" fill-rule="nonzero"/><path fill="#000000" fill-opacity="0.0" d="m27.979723 483.11417l87.328186 0l0 20.00003l-87.328186 0l0 -20.00003z" fill-rule="nonzero"/><path fill="#d32600" d="m33.10472 499.27045q-1.1093731 0 -1.9999981 -0.265625q-0.890625 -0.265625 -1.578125 -0.765625q-0.6875 -0.5 -1.234375 -1.1875l1.65625 -1.875q0.796875 1.078125 1.609375 1.453125q0.8124981 0.359375 1.6718731 0.359375q0.4375 0 0.78125 -0.109375q0.359375 -0.125 0.546875 -0.328125q0.1875 -0.21875 0.1875 -0.546875q0 -0.234375 -0.125 -0.421875q-0.109375 -0.203125 -0.328125 -0.34375q-0.203125 -0.140625 -0.5 -0.25q-0.28125 -0.125 -0.609375 -0.21875q-0.3125 -0.09375 -0.640625 -0.15625q-0.9374981 -0.203125 -1.6249981 -0.5q-0.6875 -0.3125 -1.140625 -0.75q-0.453125 -0.4375 -0.6875 -1.0q-0.21875 -0.578125 -0.21875 -1.28125q0 -0.75 0.34375 -1.375q0.34375 -0.640625 0.921875 -1.09375q0.59375 -0.453125 1.359375 -0.703125q0.7656231 -0.25 1.6093731 -0.25q1.09375 0 1.890625 0.234375q0.796875 0.234375 1.359375 0.671875q0.5625 0.421875 0.96875 1.03125l-1.6875 1.609375q-0.328125 -0.40625 -0.71875 -0.671875q-0.390625 -0.28125 -0.84375 -0.421875q-0.4375 -0.15625 -0.890625 -0.15625q-0.484375 0 -0.828125 0.125q-0.34375 0.125 -0.5468731 0.34375q-0.1875 0.203125 -0.1875 0.515625q0 0.265625 0.15625 0.46875q0.171875 0.1875 0.4374981 0.34375q0.28125 0.140625 0.625 0.25q0.359375 0.09375 0.734375 0.171875q0.890625 0.171875 1.59375 0.46875q0.71875 0.28125 1.234375 0.703125q0.515625 0.40625 0.796875 0.984375q0.28125 0.5625 0.28125 1.3125q0 1.171875 -0.5625 1.984375q-0.5625 0.796875 -1.546875 1.21875q-0.984375 0.421875 -2.265625 0.421875zm9.284653 -0.015625q-1.0625 0 -1.90625 -0.5625q-0.84375 -0.5625 -1.34375 -1.5625q-0.484375 -1.0 -0.484375 -2.265625q0 -1.296875 0.484375 -2.28125q0.5 -1.0 1.359375 -1.5625q0.875 -0.578125 1.984375 -0.578125q0.59375 0 1.09375 0.1875q0.515625 0.171875 0.890625 0.484375q0.390625 0.296875 0.65625 0.71875q0.28125 0.40625 0.40625 0.859375l-0.53125 -0.0625l0 -2.015625l2.546875 0l0 8.5l-2.59375 0l0 -2.046875l0.578125 -0.015625q-0.125 0.453125 -0.421875 0.859375q-0.28125 0.390625 -0.703125 0.703125q-0.40625 0.296875 -0.921875 0.46875q-0.515625 0.171875 -1.09375 0.171875zm0.703125 -2.15625q0.59375 0 1.03125 -0.265625q0.4375 -0.28125 0.671875 -0.78125q0.234375 -0.5 0.234375 -1.1875q0 -0.6875 -0.234375 -1.1875q-0.234375 -0.515625 -0.671875 -0.796875q-0.4375 -0.28125 -1.03125 -0.28125q-0.5625 0 -1.0 0.28125q-0.421875 0.28125 -0.65625 0.796875q-0.234375 0.5 -0.234375 1.1875q0 0.6875 0.234375 1.1875q0.234375 0.5 0.65625 0.78125q0.4375 0.265625 1.0 0.265625zm7.2315216 2.015625l0 -8.90625q0 -0.84375 0.359375 -1.515625q0.375 -0.671875 1.015625 -1.0625q0.65625 -0.390625 1.515625 -0.390625q0.609375 0 1.109375 0.1875q0.515625 0.171875 0.921875 0.484375l-0.734375 1.875q-0.21875 -0.109375 -0.40625 -0.171875q-0.1875 -0.0625 -0.34375 -0.0625q-0.296875 0 -0.484375 0.09375q-0.1875 0.09375 -0.28125 0.296875q-0.09375 0.203125 -0.09375 0.484375l0 8.6875l-1.28125 0q-0.421875 0 -0.75 0q-0.328125 0 -0.546875 0zm-1.21875 -6.140625l0 -2.109375l5.546875 0l0 2.109375l-5.546875 0zm10.718002 6.296875q-1.40625 0 -2.453125 -0.5625q-1.03125 -0.5625 -1.609375 -1.546875q-0.578125 -0.984375 -0.578125 -2.25q0 -0.984375 0.3125 -1.796875q0.328125 -0.8125 0.90625 -1.40625q0.578125 -0.609375 1.359375 -0.9375q0.796875 -0.328125 1.734375 -0.328125q0.90625 0 1.640625 0.328125q0.75 0.3125 1.296875 0.890625q0.546875 0.578125 0.828125 1.359375q0.28125 0.78125 0.25 1.703125l-0.015625 0.6875l-6.765625 0l-0.359375 -1.4375l5.046875 0l-0.265625 0.3125l0 -0.328125q-0.03125 -0.390625 -0.25 -0.703125q-0.21875 -0.3125 -0.578125 -0.484375q-0.34375 -0.1875 -0.796875 -0.1875q-0.625 0 -1.0625 0.25q-0.4375 0.25 -0.671875 0.71875q-0.21875 0.46875 -0.21875 1.15625q0 0.703125 0.296875 1.234375q0.296875 0.515625 0.859375 0.8125q0.578125 0.28125 1.359375 0.28125q0.546875 0 0.96875 -0.15625q0.421875 -0.171875 0.921875 -0.546875l1.203125 1.6875q-0.5 0.4375 -1.0625 0.71875q-0.5625 0.265625 -1.140625 0.390625q-0.578125 0.140625 -1.15625 0.140625zm9.313522 0q-1.109375 0 -2.0 -0.265625q-0.890625 -0.265625 -1.578125 -0.765625q-0.6875 -0.5 -1.234375 -1.1875l1.65625 -1.875q0.796875 1.078125 1.609375 1.453125q0.8125 0.359375 1.671875 0.359375q0.4375 0 0.78125 -0.109375q0.359375 -0.125 0.546875 -0.328125q0.1875 -0.21875 0.1875 -0.546875q0 -0.234375 -0.125 -0.421875q-0.109375 -0.203125 -0.328125 -0.34375q-0.203125 -0.140625 -0.5 -0.25q-0.28125 -0.125 -0.609375 -0.21875q-0.3125 -0.09375 -0.640625 -0.15625q-0.9375 -0.203125 -1.625 -0.5q-0.6875 -0.3125 -1.140625 -0.75q-0.453125 -0.4375 -0.6875 -1.0q-0.21875 -0.578125 -0.21875 -1.28125q0 -0.75 0.34375 -1.375q0.34375 -0.640625 0.921875 -1.09375q0.59375 -0.453125 1.359375 -0.703125q0.765625 -0.25 1.609375 -0.25q1.09375 0 1.890625 0.234375q0.796875 0.234375 1.359375 0.671875q0.5625 0.421875 0.96875 1.03125l-1.6875 1.609375q-0.328125 -0.40625 -0.71875 -0.671875q-0.390625 -0.28125 -0.84375 -0.421875q-0.4375 -0.15625 -0.890625 -0.15625q-0.484375 0 -0.828125 0.125q-0.34375 0.125 -0.546875 0.34375q-0.1875 0.203125 -0.1875 0.515625q0 0.265625 0.15625 0.46875q0.171875 0.1875 0.4375 0.34375q0.28125 0.140625 0.625 0.25q0.359375 0.09375 0.734375 0.171875q0.890625 0.171875 1.59375 0.46875q0.71875 0.28125 1.234375 0.703125q0.515625 0.40625 0.796875 0.984375q0.28125 0.5625 0.28125 1.3125q0 1.171875 -0.5625 1.984375q-0.5625 0.796875 -1.546875 1.21875q-0.984375 0.421875 -2.265625 0.421875zm10.159653 0q-1.328125 0 -2.359375 -0.5625q-1.03125 -0.578125 -1.640625 -1.5625q-0.59375 -1.0 -0.59375 -2.28125q0 -1.28125 0.59375 -2.265625q0.609375 -1.0 1.640625 -1.578125q1.03125 -0.578125 2.359375 -0.578125q1.328125 0 2.359375 0.578125q1.03125 0.578125 1.625 1.578125q0.59375 0.984375 0.59375 2.265625q0 1.28125 -0.59375 2.28125q-0.59375 0.984375 -1.625 1.5625q-1.03125 0.5625 -2.359375 0.5625zm0 -2.203125q0.578125 0 1.015625 -0.28125q0.453125 -0.296875 0.703125 -0.78125q0.265625 -0.5 0.25 -1.140625q0.015625 -0.640625 -0.25 -1.140625q-0.25 -0.515625 -0.703125 -0.796875q-0.4375 -0.296875 -1.015625 -0.296875q-0.578125 0 -1.046875 0.296875q-0.453125 0.28125 -0.703125 0.796875q-0.25 0.5 -0.234375 1.140625q-0.015625 0.640625 0.234375 1.140625q0.25 0.484375 0.703125 0.78125q0.46875 0.28125 1.046875 0.28125zm9.146652 2.21875q-0.9375 0 -1.609375 -0.40625q-0.65625 -0.40625 -1.015625 -1.171875q-0.359375 -0.765625 -0.359375 -1.84375l0 -5.25l2.5625 0l0 4.90625q0 0.5 0.15625 0.875q0.171875 0.359375 0.484375 0.5625q0.328125 0.203125 0.78125 0.203125q0.328125 0 0.609375 -0.109375q0.28125 -0.109375 0.46875 -0.3125q0.203125 -0.203125 0.3125 -0.46875q0.125 -0.265625 0.125 -0.578125l0 -5.078125l2.578125 0l0 8.5l-2.421875 0l-0.109375 -1.75l0.484375 -0.1875q-0.203125 0.609375 -0.65625 1.078125q-0.4375 0.46875 -1.0625 0.75q-0.625 0.28125 -1.328125 0.28125zm7.3813934 -0.171875l0 -8.5l2.421875 0l0.078125 1.734375l-0.5 0.1875q0.171875 -0.578125 0.625 -1.046875q0.453125 -0.46875 1.09375 -0.75q0.640625 -0.296875 1.34375 -0.296875q0.96875 0 1.625 0.390625q0.65625 0.390625 0.984375 1.171875q0.34375 0.765625 0.34375 1.890625l0 5.21875l-2.578125 0l0 -5.015625q0 -0.5 -0.15625 -0.828125q-0.140625 -0.34375 -0.4375 -0.515625q-0.28125 -0.171875 -0.71875 -0.15625q-0.34375 0 -0.625 0.109375q-0.28125 0.109375 -0.5 0.3125q-0.203125 0.1875 -0.328125 0.453125q-0.109375 0.25 -0.109375 0.546875l0 5.09375l-1.265625 0q-0.453125 0 -0.78125 0q-0.3125 0 -0.515625 0zm13.378769 0.171875q-1.109375 0 -1.96875 -0.5625q-0.859375 -0.5625 -1.359375 -1.5625q-0.484375 -1.0 -0.484375 -2.28125q0 -1.28125 0.484375 -2.28125q0.5 -1.0 1.359375 -1.578125q0.875 -0.578125 2.0 -0.578125q0.5625 0 1.09375 0.1875q0.53125 0.171875 0.953125 0.46875q0.4375 0.296875 0.703125 0.703125q0.28125 0.390625 0.328125 0.796875l-0.609375 0.140625l0 -5.46875l2.578125 0l0 11.84375l-2.375 0l-0.15625 -1.9375l0.515625 0.078125q-0.046875 0.40625 -0.3125 0.78125q-0.265625 0.359375 -0.6875 0.640625q-0.40625 0.28125 -0.953125 0.4375q-0.53125 0.171875 -1.109375 0.171875zm0.65625 -2.125q0.578125 0 1.015625 -0.28125q0.4375 -0.296875 0.65625 -0.796875q0.234375 -0.515625 0.234375 -1.203125q0 -0.703125 -0.234375 -1.21875q-0.21875 -0.515625 -0.65625 -0.796875q-0.4375 -0.296875 -1.015625 -0.296875q-0.59375 0 -1.03125 0.296875q-0.421875 0.28125 -0.65625 0.796875q-0.234375 0.515625 -0.234375 1.21875q0 0.6875 0.234375 1.203125q0.234375 0.5 0.65625 0.796875q0.4375 0.28125 1.03125 0.28125z" fill-rule="nonzero"/><path fill="#000000" fill-opacity="0.0" d="m115.30791 483.11417l0 0l0 20.00003l0 0l0 -20.00003z" fill-rule="nonzero"/><path fill="#d32600" d="m27.979723 500.1542l87.328186 0l0 1.4400024l-87.328186 0l0 -1.4400024z" fill-rule="nonzero"/><path fill="#000000" fill-opacity="0.0" d="m20.267717 496.55417l93.1362 0l0 20.00003l-93.1362 0l0 -20.00003z" fill-rule="nonzero"/><path fill="#d32600" d="m24.111467 512.5542l0 -8.796875l-3.328125 0l0 -2.40625l9.453125 0l0 2.40625l-3.40625 0l0 8.796875l-2.71875 0zm10.223768 0.15625q-1.40625 0 -2.453123 -0.5625q-1.03125 -0.5625 -1.609375 -1.546875q-0.578125 -0.984375 -0.578125 -2.25q0 -0.984375 0.3125 -1.796875q0.328125 -0.8125 0.90625 -1.40625q0.578125 -0.609375 1.3593731 -0.9375q0.796875 -0.328125 1.734375 -0.328125q0.90625 0 1.640625 0.328125q0.75 0.3125 1.296875 0.890625q0.546875 0.578125 0.828125 1.359375q0.28125 0.78125 0.25 1.703125l-0.015625 0.6875l-6.765623 0l-0.359375 -1.4375l5.046873 0l-0.265625 0.3125l0 -0.328125q-0.03125 -0.390625 -0.25 -0.703125q-0.21875 -0.3125 -0.578125 -0.484375q-0.34375 -0.1875 -0.796875 -0.1875q-0.625 0 -1.0625 0.25q-0.4375 0.25 -0.671875 0.71875q-0.21875 0.46875 -0.21875 1.15625q0 0.703125 0.296875 1.234375q0.296875 0.515625 0.859375 0.8125q0.578125 0.28125 1.359375 0.28125q0.546875 0 0.96875 -0.15625q0.421875 -0.171875 0.921875 -0.546875l1.203125 1.6875q-0.5 0.4375 -1.0625 0.71875q-0.5625 0.265625 -1.140625 0.390625q-0.578125 0.140625 -1.15625 0.140625zm9.047897 0q-1.234375 0 -2.203125 -0.5625q-0.96875 -0.578125 -1.546875 -1.578125q-0.5625 -1.0 -0.5625 -2.265625q0 -1.265625 0.5625 -2.265625q0.578125 -1.0 1.546875 -1.578125q0.96875 -0.578125 2.203125 -0.578125q1.140625 0 2.09375 0.40625q0.953125 0.390625 1.515625 1.109375l-1.390625 1.671875q-0.234375 -0.265625 -0.546875 -0.484375q-0.296875 -0.21875 -0.671875 -0.34375q-0.359375 -0.140625 -0.75 -0.140625q-0.609375 0 -1.078125 0.28125q-0.46875 0.28125 -0.71875 0.78125q-0.25 0.5 -0.25 1.140625q0 0.609375 0.25 1.109375q0.265625 0.484375 0.734375 0.78125q0.46875 0.28125 1.0625 0.28125q0.40625 0 0.75 -0.09375q0.359375 -0.109375 0.65625 -0.3125q0.296875 -0.21875 0.5625 -0.53125l1.375 1.6875q-0.546875 0.6875 -1.515625 1.09375q-0.96875 0.390625 -2.078125 0.390625zm5.0012665 -0.15625l0 -11.84375l2.5 0l0 5.078125l-0.5 0.1875q0.171875 -0.578125 0.625 -1.046875q0.453125 -0.46875 1.09375 -0.75q0.640625 -0.296875 1.34375 -0.296875q0.96875 0 1.625 0.390625q0.65625 0.390625 0.984375 1.171875q0.34375 0.765625 0.34375 1.890625l0 5.21875l-2.578125 0l0 -5.015625q0 -0.5 -0.15625 -0.828125q-0.140625 -0.34375 -0.4375 -0.515625q-0.28125 -0.171875 -0.71875 -0.15625q-0.34375 0 -0.625 0.109375q-0.28125 0.109375 -0.5 0.3125q-0.203125 0.1875 -0.328125 0.453125q-0.109375 0.25 -0.109375 0.546875l0 5.09375l-1.265625 0q-0.453125 0 -0.78125 0q-0.3125 0 -0.515625 0zm10.160019 0l0 -8.5l2.421875 0l0.078125 1.734375l-0.5 0.1875q0.171875 -0.578125 0.625 -1.046875q0.453125 -0.46875 1.09375 -0.75q0.640625 -0.296875 1.34375 -0.296875q0.96875 0 1.625 0.390625q0.65625 0.390625 0.984375 1.171875q0.34375 0.765625 0.34375 1.890625l0 5.21875l-2.578125 0l0 -5.015625q0 -0.5 -0.15625 -0.828125q-0.140625 -0.34375 -0.4375 -0.515625q-0.28125 -0.171875 -0.71875 -0.15625q-0.34375 0 -0.625 0.109375q-0.28125 0.109375 -0.5 0.3125q-0.203125 0.1875 -0.328125 0.453125q-0.109375 0.25 -0.109375 0.546875l0 5.09375l-1.265625 0q-0.453125 0 -0.78125 0q-0.3125 0 -0.515625 0zm14.160019 0.15625q-1.328125 0 -2.359375 -0.5625q-1.03125 -0.578125 -1.640625 -1.5625q-0.59375 -1.0 -0.59375 -2.28125q0 -1.28125 0.59375 -2.265625q0.609375 -1.0 1.640625 -1.578125q1.03125 -0.578125 2.359375 -0.578125q1.328125 0 2.359375 0.578125q1.03125 0.578125 1.625 1.578125q0.59375 0.984375 0.59375 2.265625q0 1.28125 -0.59375 2.28125q-0.59375 0.984375 -1.625 1.5625q-1.03125 0.5625 -2.359375 0.5625zm0 -2.203125q0.578125 0 1.015625 -0.28125q0.453125 -0.296875 0.703125 -0.78125q0.265625 -0.5 0.25 -1.140625q0.015625 -0.640625 -0.25 -1.140625q-0.25 -0.515625 -0.703125 -0.796875q-0.4375 -0.296875 -1.015625 -0.296875q-0.578125 0 -1.046875 0.296875q-0.453125 0.28125 -0.703125 0.796875q-0.25 0.5 -0.234375 1.140625q-0.015625 0.640625 0.234375 1.140625q0.25 0.484375 0.703125 0.78125q0.46875 0.28125 1.046875 0.28125zm6.271652 2.046875l0 -11.84375l2.5625 0l0 11.84375l-2.5625 0zm8.688385 0.15625q-1.328125 0 -2.359375 -0.5625q-1.03125 -0.578125 -1.640625 -1.5625q-0.59375 -1.0 -0.59375 -2.28125q0 -1.28125 0.59375 -2.265625q0.609375 -1.0 1.640625 -1.578125q1.03125 -0.578125 2.359375 -0.578125q1.328125 0 2.359375 0.578125q1.03125 0.578125 1.625 1.578125q0.59375 0.984375 0.59375 2.265625q0 1.28125 -0.59375 2.28125q-0.59375 0.984375 -1.625 1.5625q-1.03125 0.5625 -2.359375 0.5625zm0 -2.203125q0.578125 0 1.015625 -0.28125q0.453125 -0.296875 0.703125 -0.78125q0.265625 -0.5 0.25 -1.140625q0.015625 -0.640625 -0.25 -1.140625q-0.25 -0.515625 -0.703125 -0.796875q-0.4375 -0.296875 -1.015625 -0.296875q-0.578125 0 -1.046875 0.296875q-0.453125 0.28125 -0.703125 0.796875q-0.25 0.5 -0.234375 1.140625q-0.015625 0.640625 0.234375 1.140625q0.25 0.484375 0.703125 0.78125q0.46875 0.28125 1.046875 0.28125zm10.146652 5.734375q-1.046875 0 -2.078125 -0.3125q-1.03125 -0.296875 -1.671875 -0.78125l0.890625 -1.796875q0.34375 0.234375 0.75 0.390625q0.40625 0.171875 0.84375 0.265625q0.453125 0.09375 0.921875 0.09375q0.8125 0 1.328125 -0.234375q0.515625 -0.234375 0.765625 -0.734375q0.265625 -0.484375 0.265625 -1.21875l0 -1.421875l0.484375 0.078125q-0.109375 0.53125 -0.546875 0.96875q-0.4375 0.421875 -1.078125 0.6875q-0.640625 0.265625 -1.359375 0.265625q-1.15625 0 -2.0625 -0.53125q-0.90625 -0.546875 -1.421875 -1.5q-0.515625 -0.953125 -0.515625 -2.1875q0 -1.28125 0.5 -2.265625q0.515625 -0.984375 1.40625 -1.546875q0.90625 -0.578125 2.03125 -0.578125q0.46875 0 0.90625 0.109375q0.453125 0.109375 0.828125 0.296875q0.375 0.1875 0.671875 0.4375q0.296875 0.25 0.46875 0.53125q0.1875 0.28125 0.25 0.59375l-0.515625 0.125l0.09375 -1.921875l2.421875 0l0 7.8125q0 1.046875 -0.3125 1.84375q-0.3125 0.8125 -0.90625 1.375q-0.59375 0.578125 -1.453125 0.859375q-0.84375 0.296875 -1.90625 0.296875zm0.0625 -5.734375q0.625 0 1.078125 -0.28125q0.453125 -0.28125 0.703125 -0.765625q0.25 -0.5 0.25 -1.171875q0 -0.671875 -0.25 -1.171875q-0.25 -0.515625 -0.703125 -0.796875q-0.453125 -0.28125 -1.078125 -0.28125q-0.609375 0 -1.0625 0.28125q-0.453125 0.28125 -0.703125 0.796875q-0.234375 0.5 -0.234375 1.171875q0 0.671875 0.234375 1.171875q0.25 0.484375 0.703125 0.765625q0.453125 0.28125 1.0625 0.28125zm7.8134003 5.734375l1.9375 -4.5625l0.03125 1.3125l-4.09375 -8.9375l2.890625 0l1.796875 4.28125q0.140625 0.3125 0.265625 0.6875q0.140625 0.359375 0.203125 0.703125l-0.359375 0.203125q0.09375 -0.234375 0.21875 -0.59375q0.125 -0.359375 0.265625 -0.78125l1.5625 -4.5l2.921875 0l-3.625 8.5l-1.46875 3.6875l-2.546875 0z" fill-rule="nonzero"/><path fill="#34a853" d="m114.560165 505.69482l-0.734375 -0.90625q0.671875 -0.28125 1.078125 -0.703125q0.40625 -0.421875 0.40625 -0.71875q0 -0.171875 -0.125 -0.34375q-0.125 -0.171875 -0.359375 -0.3125q-0.359375 -0.265625 -0.515625 -0.515625q-0.140625 -0.265625 -0.140625 -0.5625q0 -0.5 0.359375 -0.78125q0.359375 -0.296875 0.9375 -0.296875q0.484375 0 0.875 0.25q0.390625 0.25 0.609375 0.703125q0.234375 0.453125 0.234375 1.046875q0 0.515625 -0.203125 1.0q-0.1875 0.484375 -0.546875 0.921875q-0.359375 0.421875 -0.84375 0.734375q-0.46875 0.3125 -1.03125 0.484375z" fill-rule="nonzero"/><path fill="#666666" d="m118.97618 505.69482l-0.734375 -0.90625q0.671875 -0.28125 1.078125 -0.703125q0.40625 -0.421875 0.40625 -0.71875q0 -0.171875 -0.125 -0.34375q-0.125 -0.171875 -0.359375 -0.3125q-0.359375 -0.265625 -0.515625 -0.515625q-0.140625 -0.265625 -0.140625 -0.5625q0 -0.5 0.359375 -0.78125q0.359375 -0.296875 0.9375 -0.296875q0.484375 0 0.875 0.25q0.390625 0.25 0.609375 0.703125q0.234375 0.453125 0.234375 1.046875q0 0.515625 -0.203125 1.0q-0.1875 0.484375 -0.546875 0.921875q-0.359375 0.421875 -0.84375 0.734375q-0.46875 0.3125 -1.03125 0.484375z" fill-rule="nonzero"/><path fill="#d32600" d="m20.267717 513.5942l93.1362 0l0 1.4400024l-93.1362 0l0 -1.4400024z" fill-rule="nonzero"/><path fill="#000000" fill-opacity="0.0" d="m260.0 301.5643l440.0 0l0 74.33072l-440.0 0z" fill-rule="evenodd"/><path fill="#34a853" d="m418.1233 310.5643l151.02643 0l0 27.200012l-151.02643 0l0 -27.200012z" fill-rule="nonzero"/><path fill="#000000" d="m276.10938 332.54306q-1.28125 0 -2.390625 -0.328125q-1.09375 -0.34375 -2.0 -1.03125q-0.890625 -0.6875 -1.59375 -1.71875l1.6875 -1.921875q1.109375 1.59375 2.125 2.203125q1.015625 0.609375 2.421875 0.609375q0.859375 0 1.5625 -0.265625q0.703125 -0.28125 1.109375 -0.75q0.40625 -0.484375 0.40625 -1.09375q0 -0.40625 -0.140625 -0.765625q-0.125 -0.359375 -0.40625 -0.65625q-0.28125 -0.296875 -0.734375 -0.546875q-0.4375 -0.25 -1.03125 -0.4375q-0.578125 -0.203125 -1.34375 -0.328125q-1.234375 -0.25 -2.140625 -0.65625q-0.90625 -0.421875 -1.515625 -1.03125q-0.609375 -0.609375 -0.90625 -1.390625q-0.296875 -0.78125 -0.296875 -1.75q0 -0.953125 0.421875 -1.765625q0.421875 -0.828125 1.15625 -1.421875q0.734375 -0.59375 1.734375 -0.921875q1.0 -0.328125 2.15625 -0.328125q1.21875 0 2.234375 0.3125q1.015625 0.3125 1.8125 0.9375q0.796875 0.625 1.3125 1.53125l-1.71875 1.703125q-0.453125 -0.75 -1.015625 -1.25q-0.5625 -0.515625 -1.25 -0.78125q-0.671875 -0.265625 -1.453125 -0.265625q-0.875 0 -1.53125 0.28125q-0.65625 0.265625 -1.03125 0.75q-0.375 0.484375 -0.375 1.140625q0 0.484375 0.171875 0.890625q0.1875 0.390625 0.5625 0.703125q0.375 0.296875 1.0 0.53125q0.640625 0.234375 1.53125 0.421875q1.234375 0.265625 2.203125 0.6875q0.984375 0.421875 1.65625 0.984375q0.6875 0.5625 1.03125 1.265625q0.359375 0.703125 0.359375 1.515625q0 1.53125 -0.703125 2.640625q-0.703125 1.109375 -2.0 1.703125q-1.28125 0.59375 -3.078125 0.59375zm10.137451 -0.21875l0 -14.9375l2.328125 0l0 14.9375l-2.328125 0zm-2.46875 -9.625l0 -2.265625l7.5625 0l0 2.265625l-7.5625 0zm14.14917 9.84375q-1.46875 0 -2.6875 -0.8125q-1.203125 -0.8125 -1.9375 -2.21875q-0.71875 -1.40625 -0.71875 -3.171875q0 -1.78125 0.734375 -3.171875q0.734375 -1.40625 1.984375 -2.1875q1.265625 -0.796875 2.828125 -0.796875q0.9375 0 1.703125 0.28125q0.765625 0.265625 1.34375 0.75q0.578125 0.484375 0.953125 1.125q0.375 0.625 0.46875 1.359375l-0.515625 -0.1875l0 -3.078125l2.34375 0l0 11.890625l-2.34375 0l0 -2.828125l0.53125 -0.15625q-0.125 0.609375 -0.546875 1.1875q-0.421875 0.578125 -1.078125 1.03125q-0.640625 0.453125 -1.421875 0.71875q-0.78125 0.265625 -1.640625 0.265625zm0.609375 -2.140625q1.078125 0 1.890625 -0.515625q0.8125 -0.53125 1.265625 -1.4375q0.46875 -0.921875 0.46875 -2.109375q0 -1.15625 -0.46875 -2.0625q-0.453125 -0.90625 -1.265625 -1.421875q-0.8125 -0.515625 -1.890625 -0.515625q-1.03125 0 -1.84375 0.515625q-0.796875 0.515625 -1.265625 1.421875q-0.46875 0.90625 -0.46875 2.0625q0 1.1875 0.46875 2.109375q0.46875 0.90625 1.265625 1.4375q0.8125 0.515625 1.84375 0.515625zm9.15387 1.921875l0 -11.890625l2.359375 0l0 3.734375l-0.21875 -0.90625q0.25 -0.859375 0.84375 -1.5625q0.59375 -0.703125 1.375 -1.109375q0.796875 -0.40625 1.625 -0.40625q0.390625 0 0.734375 0.078125q0.359375 0.0625 0.5625 0.140625l-0.609375 2.546875q-0.28125 -0.125 -0.609375 -0.203125q-0.328125 -0.078125 -0.640625 -0.078125q-0.609375 0 -1.171875 0.25q-0.546875 0.234375 -0.96875 0.65625q-0.421875 0.40625 -0.671875 0.96875q-0.25 0.546875 -0.25 1.21875l0 6.5625l-2.359375 0zm11.068176 0l0 -14.9375l2.328125 0l0 14.9375l-2.328125 0zm-2.46875 -9.625l0 -2.265625l7.5625 0l0 2.265625l-7.5625 0zm10.074951 9.625l0 -11.890625l2.328125 0l0 11.890625l-2.328125 0zm1.140625 -14.515625q-0.75 0 -1.171875 -0.390625q-0.40625 -0.390625 -0.40625 -1.09375q0 -0.65625 0.421875 -1.0625q0.421875 -0.40625 1.15625 -0.40625q0.734375 0 1.140625 0.390625q0.421875 0.375 0.421875 1.078125q0 0.65625 -0.421875 1.078125q-0.421875 0.40625 -1.140625 0.40625zm4.767212 14.515625l0 -11.890625l2.34375 0l0 2.4375l-0.40625 0.28125q0.21875 -0.796875 0.875 -1.46875q0.65625 -0.671875 1.5625 -1.078125q0.90625 -0.421875 1.859375 -0.421875q1.359375 0 2.265625 0.53125q0.90625 0.53125 1.359375 1.625q0.453125 1.078125 0.453125 2.734375l0 7.25l-2.328125 0l0 -7.09375q0 -1.015625 -0.28125 -1.6875q-0.265625 -0.671875 -0.84375 -0.96875q-0.5625 -0.3125 -1.390625 -0.265625q-0.6875 0 -1.25 0.21875q-0.5625 0.21875 -0.984375 0.609375q-0.421875 0.375 -0.65625 0.890625q-0.234375 0.5 -0.234375 1.09375l0 7.203125l-1.15625 0q-0.296875 0 -0.59375 0q-0.296875 0 -0.59375 0zm18.808533 5.203125q-1.265625 0 -2.53125 -0.390625q-1.25 -0.390625 -2.015625 -1.03125l0.859375 -1.8125q0.453125 0.34375 1.0625 0.59375q0.609375 0.265625 1.28125 0.40625q0.6875 0.15625 1.34375 0.15625q1.25 0 2.078125 -0.40625q0.84375 -0.40625 1.265625 -1.203125q0.4375 -0.796875 0.4375 -1.96875l0 -2.28125l0.25 0.15625q-0.109375 0.703125 -0.734375 1.34375q-0.625 0.640625 -1.5625 1.046875q-0.921875 0.40625 -1.890625 0.40625q-1.703125 0 -3.03125 -0.796875q-1.3125 -0.796875 -2.09375 -2.1875q-0.765625 -1.40625 -0.765625 -3.1875q0 -1.796875 0.75 -3.1875q0.765625 -1.390625 2.09375 -2.1875q1.328125 -0.8125 2.984375 -0.8125q0.671875 0 1.296875 0.171875q0.640625 0.171875 1.1875 0.484375q0.546875 0.296875 0.96875 0.65625q0.4375 0.359375 0.703125 0.765625q0.28125 0.40625 0.34375 0.78125l-0.5 0.171875l0 -2.78125l2.34375 0l0 11.171875q0 1.421875 -0.421875 2.515625q-0.421875 1.109375 -1.21875 1.859375q-0.796875 0.765625 -1.9375 1.15625q-1.125 0.390625 -2.546875 0.390625zm0.09375 -7.125q1.109375 0 1.96875 -0.515625q0.859375 -0.53125 1.328125 -1.4375q0.484375 -0.90625 0.484375 -2.078125q0 -1.1875 -0.484375 -2.09375q-0.484375 -0.921875 -1.34375 -1.4375q-0.84375 -0.53125 -1.953125 -0.53125q-1.09375 0 -1.9375 0.53125q-0.84375 0.53125 -1.34375 1.453125q-0.484375 0.921875 -0.484375 2.078125q0 1.15625 0.484375 2.078125q0.5 0.90625 1.34375 1.4375q0.84375 0.515625 1.9375 0.515625zm18.547607 1.921875l-4.046875 -11.890625l2.359375 -0.03125l2.890625 8.90625l-0.515625 -0.046875l3.140625 -6.953125l1.40625 0l3.171875 6.984375l-0.609375 0.046875l2.921875 -8.90625l2.359375 0l-4.015625 11.890625l-1.609375 0l-3.296875 -7.5625l0.515625 0.0625l-3.078125 7.5l-1.59375 0zm15.59375 0l0 -11.890625l2.328125 0l0 11.890625l-2.328125 0zm1.140625 -14.515625q-0.75 0 -1.171875 -0.390625q-0.40625 -0.390625 -0.40625 -1.09375q0 -0.65625 0.421875 -1.0625q0.421875 -0.40625 1.15625 -0.40625q0.734375 0 1.140625 0.390625q0.421875 0.375 0.421875 1.078125q0 0.65625 -0.421875 1.078125q-0.421875 0.40625 -1.140625 0.40625zm6.251526 14.515625l0 -14.9375l2.328125 0l0 14.9375l-2.328125 0zm-2.46875 -9.625l0 -2.265625l7.5625 0l0 2.265625l-7.5625 0zm9.684387 9.625l0 -16.765625l2.34375 0l0 7.3125l-0.40625 0.28125q0.21875 -0.796875 0.875 -1.46875q0.65625 -0.671875 1.5625 -1.078125q0.90625 -0.421875 1.859375 -0.421875q1.359375 0 2.265625 0.53125q0.90625 0.53125 1.359375 1.625q0.453125 1.078125 0.453125 2.734375l0 7.25l-2.328125 0l0 -7.09375q0 -1.015625 -0.28125 -1.6875q-0.265625 -0.671875 -0.84375 -0.96875q-0.5625 -0.3125 -1.390625 -0.265625q-0.6875 0 -1.25 0.21875q-0.5625 0.21875 -0.984375 0.609375q-0.421875 0.375 -0.65625 0.890625q-0.234375 0.5 -0.234375 1.09375l0 7.203125l-1.15625 0q-0.296875 0 -0.59375 0q-0.296875 0 -0.59375 0z" fill-rule="nonzero"/><path fill="#010000" fill-opacity="0.0" d="m418.1233 309.6681l151.02643 0l0 28.320251l-151.02643 0l0 -28.320251z" fill-rule="nonzero"/><path fill="#000000" d="m426.77954 332.54306q-1.65625 0 -3.046875 -0.578125q-1.375 -0.59375 -2.390625 -1.6875q-1.015625 -1.109375 -1.578125 -2.59375q-0.546875 -1.5 -0.546875 -3.28125q0 -1.703125 0.59375 -3.15625q0.59375 -1.46875 1.65625 -2.578125q1.078125 -1.109375 2.484375 -1.71875q1.40625 -0.625 3.03125 -0.625q1.15625 0 2.25 0.359375q1.109375 0.34375 2.0 0.96875q0.890625 0.625 1.453125 1.421875l-1.625 1.703125q-0.65625 -0.671875 -1.328125 -1.109375q-0.671875 -0.4375 -1.359375 -0.65625q-0.6875 -0.234375 -1.390625 -0.234375q-1.109375 0 -2.078125 0.421875q-0.953125 0.421875 -1.671875 1.171875q-0.71875 0.734375 -1.125 1.765625q-0.40625 1.03125 -0.40625 2.265625q0 1.28125 0.390625 2.34375q0.40625 1.046875 1.125 1.796875q0.734375 0.75 1.734375 1.140625q1.015625 0.390625 2.234375 0.390625q0.75 0 1.46875 -0.203125q0.734375 -0.203125 1.359375 -0.578125q0.640625 -0.390625 1.15625 -0.90625l1.21875 1.984375q-0.515625 0.609375 -1.40625 1.109375q-0.890625 0.5 -2.0 0.78125q-1.09375 0.28125 -2.203125 0.28125zm13.71167 0q-1.75 0 -3.125 -0.796875q-1.375 -0.796875 -2.171875 -2.1875q-0.78125 -1.40625 -0.78125 -3.1875q0 -1.796875 0.78125 -3.1875q0.796875 -1.390625 2.171875 -2.1875q1.375 -0.8125 3.125 -0.8125q1.71875 0 3.078125 0.8125q1.375 0.796875 2.171875 2.1875q0.796875 1.390625 0.796875 3.1875q0 1.78125 -0.796875 3.1875q-0.796875 1.390625 -2.171875 2.1875q-1.359375 0.796875 -3.078125 0.796875zm0 -2.125q1.0625 0 1.890625 -0.53125q0.84375 -0.53125 1.3125 -1.4375q0.484375 -0.921875 0.453125 -2.078125q0.03125 -1.1875 -0.453125 -2.09375q-0.46875 -0.921875 -1.3125 -1.4375q-0.828125 -0.53125 -1.890625 -0.53125q-1.078125 0 -1.921875 0.53125q-0.84375 0.53125 -1.328125 1.453125q-0.46875 0.921875 -0.453125 2.078125q-0.015625 1.15625 0.453125 2.078125q0.484375 0.90625 1.328125 1.4375q0.84375 0.53125 1.921875 0.53125zm8.574219 1.90625l0 -11.890625l2.34375 0l0 2.4375l-0.40625 0.28125q0.21875 -0.796875 0.875 -1.46875q0.65625 -0.671875 1.5625 -1.078125q0.90625 -0.421875 1.859375 -0.421875q1.359375 0 2.265625 0.53125q0.90625 0.53125 1.359375 1.625q0.453125 1.078125 0.453125 2.734375l0 7.25l-2.328125 0l0 -7.09375q0 -1.015625 -0.28125 -1.6875q-0.265625 -0.671875 -0.84375 -0.96875q-0.5625 -0.3125 -1.390625 -0.265625q-0.6875 0 -1.25 0.21875q-0.5625 0.21875 -0.984375 0.609375q-0.421875 0.375 -0.65625 0.890625q-0.234375 0.5 -0.234375 1.09375l0 7.203125l-1.15625 0q-0.296875 0 -0.59375 0q-0.296875 0 -0.59375 0zm18.542908 0.21875q-1.65625 0 -2.96875 -0.8125q-1.296875 -0.8125 -2.0625 -2.21875q-0.75 -1.40625 -0.75 -3.140625q0 -1.75 0.75 -3.15625q0.765625 -1.40625 2.0625 -2.21875q1.3125 -0.8125 2.96875 -0.8125q1.578125 0 2.875 0.640625q1.3125 0.640625 1.984375 1.765625l-1.28125 1.578125q-0.359375 -0.515625 -0.9375 -0.9375q-0.5625 -0.4375 -1.203125 -0.6875q-0.625 -0.25 -1.21875 -0.25q-1.078125 0 -1.9375 0.53125q-0.84375 0.53125 -1.34375 1.46875q-0.5 0.921875 -0.5 2.078125q0 1.15625 0.515625 2.078125q0.53125 0.90625 1.390625 1.453125q0.859375 0.546875 1.90625 0.546875q0.609375 0 1.1875 -0.203125q0.578125 -0.203125 1.109375 -0.609375q0.546875 -0.421875 1.03125 -1.0l1.28125 1.578125q-0.71875 1.015625 -2.0625 1.671875q-1.34375 0.65625 -2.796875 0.65625zm12.621094 0q-1.84375 0 -3.265625 -0.78125q-1.40625 -0.78125 -2.21875 -2.140625q-0.796875 -1.359375 -0.796875 -3.125q0 -1.40625 0.453125 -2.546875q0.453125 -1.15625 1.25 -2.0q0.8125 -0.859375 1.921875 -1.328125q1.125 -0.46875 2.453125 -0.46875q1.15625 0 2.140625 0.453125q1.0 0.4375 1.734375 1.21875q0.734375 0.765625 1.125 1.8125q0.40625 1.046875 0.390625 2.296875l-0.03125 1.0l-9.71875 0l-0.515625 -1.859375l8.21875 0l-0.34375 0.390625l0 -0.546875q-0.0625 -0.75 -0.5 -1.328125q-0.421875 -0.59375 -1.078125 -0.9375q-0.65625 -0.34375 -1.421875 -0.34375q-1.234375 0 -2.078125 0.46875q-0.828125 0.46875 -1.265625 1.359375q-0.421875 0.890625 -0.421875 2.203125q0 1.25 0.515625 2.171875q0.53125 0.90625 1.46875 1.40625q0.953125 0.5 2.203125 0.5q0.890625 0 1.640625 -0.28125q0.765625 -0.296875 1.640625 -1.078125l1.1875 1.65625q-0.546875 0.546875 -1.328125 0.953125q-0.78125 0.40625 -1.65625 0.640625q-0.875 0.234375 -1.703125 0.234375zm7.71402 -0.21875l0 -11.890625l2.359375 0l0 3.734375l-0.21875 -0.90625q0.25 -0.859375 0.84375 -1.5625q0.59375 -0.703125 1.375 -1.109375q0.796875 -0.40625 1.625 -0.40625q0.390625 0 0.734375 0.078125q0.359375 0.0625 0.5625 0.140625l-0.609375 2.546875q-0.28125 -0.125 -0.609375 -0.203125q-0.328125 -0.078125 -0.640625 -0.078125q-0.609375 0 -1.171875 0.25q-0.546875 0.234375 -0.96875 0.65625q-0.421875 0.40625 -0.671875 0.96875q-0.25 0.546875 -0.25 1.21875l0 6.5625l-2.359375 0zm11.068146 0l0 -14.9375l2.328125 0l0 14.9375l-2.328125 0zm-2.46875 -9.625l0 -2.265625l7.5625 0l0 2.265625l-7.5625 0zm17.371887 9.84375q-1.71875 0 -3.21875 -0.609375q-1.5 -0.625 -2.640625 -1.734375q-1.125 -1.109375 -1.75 -2.59375q-0.609375 -1.484375 -0.609375 -3.203125q0 -1.703125 0.609375 -3.171875q0.625 -1.484375 1.75 -2.578125q1.125 -1.09375 2.609375 -1.703125q1.5 -0.625 3.21875 -0.625q1.203125 0 2.34375 0.34375q1.15625 0.34375 2.078125 0.953125q0.9375 0.609375 1.515625 1.40625l-1.578125 1.65625q-0.6875 -0.65625 -1.40625 -1.078125q-0.703125 -0.4375 -1.453125 -0.65625q-0.75 -0.234375 -1.5 -0.234375q-1.21875 0 -2.25 0.4375q-1.03125 0.421875 -1.8125 1.1875q-0.78125 0.765625 -1.21875 1.796875q-0.421875 1.03125 -0.421875 2.265625q0 1.171875 0.453125 2.234375q0.453125 1.046875 1.25 1.84375q0.8125 0.78125 1.859375 1.234375q1.0625 0.453125 2.234375 0.453125q0.890625 0 1.671875 -0.25q0.796875 -0.265625 1.40625 -0.734375q0.625 -0.484375 0.953125 -1.109375q0.34375 -0.625 0.34375 -1.328125l0 -0.453125l0.34375 0.328125l-4.84375 0l0 -2.4375l7.015625 0q0.046875 0.25 0.0625 0.5q0.03125 0.234375 0.03125 0.453125q0.015625 0.203125 0.015625 0.40625q0 1.578125 -0.546875 2.859375q-0.53125 1.265625 -1.5 2.203125q-0.96875 0.921875 -2.25 1.4375q-1.265625 0.5 -2.765625 0.5zm15.026489 0q-1.75 0 -3.125 -0.796875q-1.375 -0.796875 -2.171875 -2.1875q-0.78125 -1.40625 -0.78125 -3.1875q0 -1.796875 0.78125 -3.1875q0.796875 -1.390625 2.171875 -2.1875q1.375 -0.8125 3.125 -0.8125q1.71875 0 3.078125 0.8125q1.375 0.796875 2.171875 2.1875q0.796875 1.390625 0.796875 3.1875q0 1.78125 -0.796875 3.1875q-0.796875 1.390625 -2.171875 2.1875q-1.359375 0.796875 -3.078125 0.796875zm0 -2.125q1.0625 0 1.890625 -0.53125q0.84375 -0.53125 1.3125 -1.4375q0.484375 -0.921875 0.453125 -2.078125q0.03125 -1.1875 -0.453125 -2.09375q-0.46875 -0.921875 -1.3125 -1.4375q-0.828125 -0.53125 -1.890625 -0.53125q-1.078125 0 -1.921875 0.53125q-0.84375 0.53125 -1.328125 1.453125q-0.46875 0.921875 -0.453125 2.078125q-0.015625 1.15625 0.453125 2.078125q0.484375 0.90625 1.328125 1.4375q0.84375 0.53125 1.921875 0.53125zm14.136719 2.125q-1.84375 0 -3.265625 -0.78125q-1.40625 -0.78125 -2.21875 -2.140625q-0.796875 -1.359375 -0.796875 -3.125q0 -1.40625 0.453125 -2.546875q0.453125 -1.15625 1.25 -2.0q0.8125 -0.859375 1.921875 -1.328125q1.125 -0.46875 2.453125 -0.46875q1.15625 0 2.140625 0.453125q1.0 0.4375 1.734375 1.21875q0.734375 0.765625 1.125 1.8125q0.40625 1.046875 0.390625 2.296875l-0.03125 1.0l-9.71875 0l-0.515625 -1.859375l8.21875 0l-0.34375 0.390625l0 -0.546875q-0.0625 -0.75 -0.5 -1.328125q-0.421875 -0.59375 -1.078125 -0.9375q-0.65625 -0.34375 -1.421875 -0.34375q-1.234375 0 -2.078125 0.46875q-0.828125 0.46875 -1.265625 1.359375q-0.421875 0.890625 -0.421875 2.203125q0 1.25 0.515625 2.171875q0.53125 0.90625 1.46875 1.40625q0.953125 0.5 2.203125 0.5q0.890625 0 1.640625 -0.28125q0.765625 -0.296875 1.640625 -1.078125l1.1875 1.65625q-0.546875 0.546875 -1.328125 0.953125q-0.78125 0.40625 -1.65625 0.640625q-0.875 0.234375 -1.703125 0.234375zm7.7140503 -0.21875l0 -11.890625l2.359375 0l0 3.734375l-0.21875 -0.90625q0.25 -0.859375 0.84375 -1.5625q0.59375 -0.703125 1.375 -1.109375q0.796875 -0.40625 1.625 -0.40625q0.390625 0 0.734375 0.078125q0.359375 0.0625 0.5625 0.140625l-0.609375 2.546875q-0.28125 -0.125 -0.609375 -0.203125q-0.328125 -0.078125 -0.640625 -0.078125q-0.609375 0 -1.171875 0.25q-0.546875 0.234375 -0.96875 0.65625q-0.421875 0.40625 -0.671875 0.96875q-0.25 0.546875 -0.25 1.21875l0 6.5625l-2.359375 0zm13.099182 0.21875q-1.5 0 -2.703125 -0.515625q-1.1875 -0.515625 -1.984375 -1.53125l1.578125 -1.359375q0.6875 0.78125 1.484375 1.140625q0.8125 0.34375 1.828125 0.34375q0.40625 0 0.75 -0.09375q0.359375 -0.109375 0.625 -0.3125q0.265625 -0.203125 0.390625 -0.484375q0.140625 -0.28125 0.140625 -0.625q0 -0.59375 -0.4375 -0.953125q-0.21875 -0.15625 -0.703125 -0.34375q-0.484375 -0.203125 -1.265625 -0.40625q-1.3125 -0.328125 -2.15625 -0.75q-0.828125 -0.4375 -1.28125 -0.984375q-0.34375 -0.4375 -0.5 -0.9375q-0.15625 -0.515625 -0.15625 -1.125q0 -0.75 0.328125 -1.375q0.328125 -0.625 0.90625 -1.078125q0.578125 -0.46875 1.359375 -0.71875q0.78125 -0.25 1.65625 -0.25q0.84375 0 1.671875 0.234375q0.828125 0.21875 1.53125 0.65625q0.703125 0.421875 1.171875 1.015625l-1.328125 1.46875q-0.4375 -0.4375 -0.953125 -0.765625q-0.5 -0.328125 -1.03125 -0.5q-0.515625 -0.1875 -0.9375 -0.1875q-0.484375 0 -0.875 0.09375q-0.375 0.09375 -0.640625 0.28125q-0.25 0.171875 -0.390625 0.453125q-0.140625 0.265625 -0.140625 0.59375q0.03125 0.296875 0.15625 0.5625q0.125 0.265625 0.34375 0.4375q0.25 0.1875 0.75 0.390625q0.5 0.203125 1.265625 0.390625q1.140625 0.28125 1.875 0.640625q0.734375 0.34375 1.15625 0.796875q0.453125 0.4375 0.640625 1.0q0.1875 0.5625 0.1875 1.265625q0 1.03125 -0.578125 1.84375q-0.578125 0.796875 -1.5625 1.25q-0.96875 0.4375 -2.171875 0.4375z" fill-rule="nonzero"/><path fill="#000000" d="m575.7122 336.54306q-2.75 -1.734375 -4.203125 -4.3125q-1.453125 -2.578125 -1.453125 -5.75q0 -3.15625 1.453125 -5.75q1.46875 -2.59375 4.234375 -4.3125l1.25 1.40625q-2.3125 1.609375 -3.53125 3.84375q-1.203125 2.234375 -1.203125 4.8125q0 2.578125 1.203125 4.8125q1.21875 2.234375 3.53125 3.84375l-1.28125 1.40625zm3.9484253 -4.21875l0 -15.859375l6.453125 0q1.296875 0 2.34375 0.65625q1.0625 0.640625 1.6875 1.75q0.640625 1.109375 0.640625 2.46875q0 1.359375 -0.640625 2.46875q-0.625 1.109375 -1.6875 1.78125q-1.046875 0.65625 -2.34375 0.65625l-4.0 0l0 6.078125l-2.453125 0zm2.453125 -8.421875l3.953125 0q0.625 0 1.109375 -0.34375q0.5 -0.359375 0.8125 -0.9375q0.3125 -0.578125 0.3125 -1.28125q0 -0.703125 -0.3125 -1.265625q-0.3125 -0.578125 -0.8125 -0.90625q-0.484375 -0.34375 -1.109375 -0.34375l-3.953125 0l0 5.078125zm11.317139 8.421875l0 -11.890625l2.359375 0l0 3.734375l-0.21875 -0.90625q0.25 -0.859375 0.84375 -1.5625q0.59375 -0.703125 1.375 -1.109375q0.796875 -0.40625 1.625 -0.40625q0.390625 0 0.734375 0.078125q0.359375 0.0625 0.5625 0.140625l-0.609375 2.546875q-0.28125 -0.125 -0.609375 -0.203125q-0.328125 -0.078125 -0.640625 -0.078125q-0.609375 0 -1.171875 0.25q-0.546875 0.234375 -0.96875 0.65625q-0.421875 0.40625 -0.671875 0.96875q-0.25 0.546875 -0.25 1.21875l0 6.5625l-2.359375 0zm13.99115 0.21875q-1.75 0 -3.125 -0.796875q-1.375 -0.796875 -2.171875 -2.1875q-0.78125 -1.40625 -0.78125 -3.1875q0 -1.796875 0.78125 -3.1875q0.796875 -1.390625 2.171875 -2.1875q1.375 -0.8125 3.125 -0.8125q1.71875 0 3.078125 0.8125q1.375 0.796875 2.171875 2.1875q0.796875 1.390625 0.796875 3.1875q0 1.78125 -0.796875 3.1875q-0.796875 1.390625 -2.171875 2.1875q-1.359375 0.796875 -3.078125 0.796875zm0 -2.125q1.0625 0 1.890625 -0.53125q0.84375 -0.53125 1.3125 -1.4375q0.484375 -0.921875 0.453125 -2.078125q0.03125 -1.1875 -0.453125 -2.09375q-0.46875 -0.921875 -1.3125 -1.4375q-0.828125 -0.53125 -1.890625 -0.53125q-1.078125 0 -1.921875 0.53125q-0.84375 0.53125 -1.328125 1.453125q-0.46875 0.921875 -0.453125 2.078125q-0.015625 1.15625 0.453125 2.078125q0.484375 0.90625 1.328125 1.4375q0.84375 0.53125 1.921875 0.53125zm13.542969 2.125q-1.625 0 -2.90625 -0.796875q-1.28125 -0.796875 -2.03125 -2.1875q-0.75 -1.40625 -0.75 -3.1875q0 -1.796875 0.734375 -3.1875q0.734375 -1.390625 2.0 -2.1875q1.28125 -0.8125 2.890625 -0.8125q0.875 0 1.703125 0.28125q0.828125 0.28125 1.484375 0.765625q0.65625 0.484375 1.03125 1.0625q0.375 0.578125 0.375 1.171875l-0.6875 0.046875l0 -7.953125l2.34375 0l0 16.765625l-2.34375 0l0 -2.828125l0.453125 0q0 0.546875 -0.359375 1.078125q-0.359375 0.53125 -0.96875 0.984375q-0.59375 0.453125 -1.375 0.71875q-0.78125 0.265625 -1.59375 0.265625zm0.3125 -2.015625q1.0625 0 1.875 -0.53125q0.828125 -0.546875 1.28125 -1.484375q0.46875 -0.9375 0.46875 -2.140625q0 -1.203125 -0.46875 -2.140625q-0.453125 -0.953125 -1.28125 -1.484375q-0.8125 -0.546875 -1.875 -0.546875q-1.0625 0 -1.875 0.546875q-0.8125 0.53125 -1.28125 1.484375q-0.46875 0.9375 -0.46875 2.140625q0 1.203125 0.46875 2.140625q0.46875 0.9375 1.28125 1.484375q0.8125 0.53125 1.875 0.53125zm13.61731 2.015625q-1.265625 0 -2.203125 -0.578125q-0.9375 -0.59375 -1.453125 -1.65625q-0.515625 -1.0625 -0.515625 -2.53125l0 -7.34375l2.34375 0l0 6.703125q0 1.046875 0.328125 1.8125q0.328125 0.75 0.953125 1.15625q0.625 0.40625 1.5 0.40625q0.65625 0 1.203125 -0.21875q0.546875 -0.21875 0.9375 -0.59375q0.390625 -0.390625 0.609375 -0.921875q0.234375 -0.546875 0.234375 -1.1875l0 -7.15625l2.34375 0l0 11.890625l-2.34375 0l0 -2.484375l0.421875 -0.28125q-0.28125 0.84375 -0.921875 1.53125q-0.640625 0.671875 -1.53125 1.0625q-0.890625 0.390625 -1.90625 0.390625zm14.597595 0q-1.65625 0 -2.96875 -0.8125q-1.296875 -0.8125 -2.0625 -2.21875q-0.75 -1.40625 -0.75 -3.140625q0 -1.75 0.75 -3.15625q0.765625 -1.40625 2.0625 -2.21875q1.3125 -0.8125 2.96875 -0.8125q1.578125 0 2.875 0.640625q1.3125 0.640625 1.984375 1.765625l-1.28125 1.578125q-0.359375 -0.515625 -0.9375 -0.9375q-0.5625 -0.4375 -1.203125 -0.6875q-0.625 -0.25 -1.21875 -0.25q-1.078125 0 -1.9375 0.53125q-0.84375 0.53125 -1.34375 1.46875q-0.5 0.921875 -0.5 2.078125q0 1.15625 0.515625 2.078125q0.53125 0.90625 1.390625 1.453125q0.859375 0.546875 1.90625 0.546875q0.609375 0 1.1875 -0.203125q0.578125 -0.203125 1.109375 -0.609375q0.546875 -0.421875 1.03125 -1.0l1.28125 1.578125q-0.71875 1.015625 -2.0625 1.671875q-1.34375 0.65625 -2.796875 0.65625zm8.542969 -0.21875l0 -14.9375l2.328125 0l0 14.9375l-2.328125 0zm-2.46875 -9.625l0 -2.265625l7.5625 0l0 2.265625l-7.5625 0z" fill-rule="nonzero"/><path fill="#000000" d="m271.21875 359.5243l0 -15.859375l2.40625 0l5.78125 9.40625l-1.15625 -0.03125l5.84375 -9.375l2.265625 0l0 15.859375l-2.453125 0l0 -6.5q0 -2.046875 0.09375 -3.671875q0.109375 -1.625 0.359375 -3.234375l0.3125 0.828125l-5.1875 8.03125l-1.484375 0l-5.03125 -7.9375l0.25 -0.921875q0.25 1.515625 0.34375 3.109375q0.109375 1.59375 0.109375 3.796875l0 6.5l-2.453125 0zm23.559326 0.21875q-1.46875 0 -2.6875 -0.8125q-1.203125 -0.8125 -1.9375 -2.21875q-0.71875 -1.40625 -0.71875 -3.171875q0 -1.78125 0.734375 -3.171875q0.734375 -1.40625 1.984375 -2.1875q1.265625 -0.796875 2.828125 -0.796875q0.9375 0 1.703125 0.28125q0.765625 0.265625 1.34375 0.75q0.578125 0.484375 0.953125 1.125q0.375 0.625 0.46875 1.359375l-0.515625 -0.1875l0 -3.078125l2.34375 0l0 11.890625l-2.34375 0l0 -2.828125l0.53125 -0.15625q-0.125 0.609375 -0.546875 1.1875q-0.421875 0.578125 -1.078125 1.03125q-0.640625 0.453125 -1.421875 0.71875q-0.78125 0.265625 -1.640625 0.265625zm0.609375 -2.140625q1.078125 0 1.890625 -0.515625q0.8125 -0.53125 1.265625 -1.4375q0.46875 -0.921875 0.46875 -2.109375q0 -1.15625 -0.46875 -2.0625q-0.453125 -0.90625 -1.265625 -1.421875q-0.8125 -0.515625 -1.890625 -0.515625q-1.03125 0 -1.84375 0.515625q-0.796875 0.515625 -1.265625 1.421875q-0.46875 0.90625 -0.46875 2.0625q0 1.1875 0.46875 2.109375q0.46875 0.90625 1.265625 1.4375q0.8125 0.515625 1.84375 0.515625zm9.15387 1.921875l0 -11.890625l2.359375 0l0 3.734375l-0.21875 -0.90625q0.25 -0.859375 0.84375 -1.5625q0.59375 -0.703125 1.375 -1.109375q0.796875 -0.40625 1.625 -0.40625q0.390625 0 0.734375 0.078125q0.359375 0.0625 0.5625 0.140625l-0.609375 2.546875q-0.28125 -0.125 -0.609375 -0.203125q-0.328125 -0.078125 -0.640625 -0.078125q-0.609375 0 -1.171875 0.25q-0.546875 0.234375 -0.96875 0.65625q-0.421875 0.40625 -0.671875 0.96875q-0.25 0.546875 -0.25 1.21875l0 6.5625l-2.359375 0zm11.271088 -3.71875l-0.125 -2.53125l5.6875 -5.640625l3.15625 0l-8.71875 8.171875zm-2.140625 3.71875l0 -16.765625l2.34375 0l0 16.765625l-2.34375 0zm8.03125 0l-4.484375 -5.234375l1.640625 -1.515625l5.828125 6.75l-2.984375 0zm9.901306 0.21875q-1.84375 0 -3.265625 -0.78125q-1.40625 -0.78125 -2.21875 -2.140625q-0.796875 -1.359375 -0.796875 -3.125q0 -1.40625 0.453125 -2.546875q0.453125 -1.15625 1.25 -2.0q0.8125 -0.859375 1.921875 -1.328125q1.125 -0.46875 2.453125 -0.46875q1.15625 0 2.140625 0.453125q1.0 0.4375 1.734375 1.21875q0.734375 0.765625 1.125 1.8125q0.40625 1.046875 0.390625 2.296875l-0.03125 1.0l-9.71875 0l-0.515625 -1.859375l8.21875 0l-0.34375 0.390625l0 -0.546875q-0.0625 -0.75 -0.5 -1.328125q-0.421875 -0.59375 -1.078125 -0.9375q-0.65625 -0.34375 -1.421875 -0.34375q-1.234375 0 -2.078125 0.46875q-0.828125 0.46875 -1.265625 1.359375q-0.421875 0.890625 -0.421875 2.203125q0 1.25 0.515625 2.171875q0.53125 0.90625 1.46875 1.40625q0.953125 0.5 2.203125 0.5q0.890625 0 1.640625 -0.28125q0.765625 -0.296875 1.640625 -1.078125l1.1875 1.65625q-0.546875 0.546875 -1.328125 0.953125q-0.78125 0.40625 -1.65625 0.640625q-0.875 0.234375 -1.703125 0.234375zm9.198395 -0.21875l0 -14.9375l2.328125 0l0 14.9375l-2.328125 0zm-2.46875 -9.625l0 -2.265625l7.5625 0l0 2.265625l-7.5625 0zm16.621857 9.625l0 -15.859375l2.453125 0l0 15.859375l-2.453125 0zm1.09375 -6.75l0 -2.359375l8.171875 0l0 2.359375l-8.171875 0zm0 -6.75l0 -2.359375l9.1875 0l0 2.359375l-9.1875 0zm12.342163 13.5l0 -11.890625l2.328125 0l0 11.890625l-2.328125 0zm1.140625 -14.515625q-0.75 0 -1.171875 -0.390625q-0.40625 -0.390625 -0.40625 -1.09375q0 -0.65625 0.421875 -1.0625q0.421875 -0.40625 1.15625 -0.40625q0.734375 0 1.140625 0.390625q0.421875 0.375 0.421875 1.078125q0 0.65625 -0.421875 1.078125q-0.421875 0.40625 -1.140625 0.40625zm6.2515564 14.515625l0 -14.9375l2.328125 0l0 14.9375l-2.328125 0zm-2.46875 -9.625l0 -2.265625l7.5625 0l0 2.265625l-7.5625 0zm9.762482 13.84375l-1.25 -1.40625q2.3125 -1.609375 3.515625 -3.84375q1.21875 -2.234375 1.21875 -4.8125q0 -2.578125 -1.21875 -4.8125q-1.203125 -2.234375 -3.515625 -3.84375l1.265625 -1.40625q2.765625 1.71875 4.21875 4.3125q1.453125 2.578125 1.453125 5.75q0 3.140625 -1.46875 5.734375q-1.453125 2.59375 -4.21875 4.328125z" fill-rule="nonzero"/></g></svg>